<svg version="1.1" id="Layer_1" xmlns="http://www.w3.org/2000/svg" xmlns:xlink="http://www.w3.org/1999/xlink" x="0px" y="0px"
	 width="15%" height="50px" viewBox="0 0 2135 605" enable-background="new 0 0 2135 605" xml:space="preserve">
<path fill="transparent" opacity="1.000000" stroke="none" 
	d="
M2136.000000,311.000000 
	C2136.000000,409.315308 2136.000000,507.630615 2136.000000,606.000000 
	C1493.969116,606.000000 851.938171,606.000000 209.313644,605.656128 
	C209.831390,603.881226 210.961136,602.464050 212.051315,601.017151 
	C225.033646,583.786682 234.799164,564.855347 239.954605,543.930847 
	C243.190567,530.796997 245.708603,517.327820 246.811462,503.866730 
	C248.200531,486.912537 246.739243,469.902435 243.020203,453.188171 
	C238.637009,433.489044 232.555359,414.184021 220.820114,397.753815 
	C208.599075,380.643463 194.510727,364.856995 181.069611,348.631866 
	C173.605972,339.622314 165.796768,330.899048 158.525085,322.037598 
	C159.548157,322.158508 160.210266,322.225037 160.827713,322.427704 
	C185.133926,330.406433 208.021408,341.592560 229.384293,355.430725 
	C249.820694,368.668762 269.284821,383.414703 289.081482,397.629913 
	C296.960999,403.287842 304.585846,409.300507 312.432495,415.218567 
	C312.662842,415.401794 312.754761,415.539764 312.965393,416.019775 
	C313.750122,416.594452 314.383514,416.848755 315.229980,417.341736 
	C316.762299,417.409637 318.811310,417.720886 319.290558,416.995300 
	C325.673187,407.331604 332.541901,397.893372 337.909332,387.674103 
	C349.778961,365.074890 355.322357,340.552429 356.881744,315.224670 
	C357.876984,299.060272 356.280304,282.961670 353.028137,267.044189 
	C348.736786,246.040573 341.782745,225.894653 329.431488,208.417297 
	C318.468140,192.903961 305.696259,178.651566 293.470459,164.053833 
	C285.848450,154.953110 277.678558,146.313690 269.894989,137.345337 
	C255.329437,120.562660 240.889572,103.670959 226.352463,86.863503 
	C215.254318,74.032089 204.127502,61.224983 192.939377,48.472027 
	C180.325272,34.093666 167.602692,19.810408 155.015228,5.408931 
	C153.996094,4.242924 153.655762,2.483609 153.000000,0.999998 
	C813.880615,1.000000 1474.761230,1.000000 2136.000000,1.000000 
	C2136.000000,91.363930 2136.000000,181.728333 2135.648193,272.860718 
	C2134.368164,269.750763 2133.538330,265.846161 2132.494873,261.999359 
	C2127.713623,244.366623 2119.838379,228.433304 2107.981689,214.306046 
	C2098.829346,203.400650 2087.932129,194.968842 2075.738037,188.013214 
	C2057.396484,177.551193 2037.647827,173.373215 2016.523682,173.831696 
	C2000.682251,174.175522 1985.766479,177.421768 1971.489258,183.981720 
	C1941.009399,197.986435 1921.020752,221.516418 1910.139771,252.867249 
	C1902.998291,273.443451 1901.768311,294.716217 1906.197021,315.994324 
	C1914.611450,356.420990 1937.267578,386.310547 1975.185059,403.044739 
	C2022.097778,423.748840 2078.966064,408.481415 2110.427979,367.959381 
	C2118.100342,358.077728 2123.955322,347.227417 2128.094482,335.160858 
	C2113.166748,335.160858 2098.716553,335.160858 2084.358887,335.160858 
	C2069.027588,362.507416 2037.704468,380.393372 1998.109741,369.052704 
	C1975.443970,362.560822 1947.045044,330.558716 1948.345581,311.753479 
	C1950.093384,311.753479 1951.891235,311.753479 1953.688965,311.753479 
	C2010.673584,311.753479 2067.658203,311.767822 2124.642822,311.721130 
	C2128.428711,311.718018 2132.214355,311.251160 2136.000000,311.000000 
M770.847412,216.148865 
	C780.062561,215.182632 789.320862,213.143158 798.482239,213.512238 
	C810.915039,214.013123 822.035095,218.702972 830.415344,228.740616 
	C840.175293,240.430664 843.863708,254.147141 843.928284,268.893036 
	C844.121033,312.879395 843.997498,356.867126 843.997437,400.854340 
	C843.997437,402.610382 843.997375,404.366394 843.997375,405.986877 
	C858.625366,405.986877 872.570496,405.986877 886.928894,405.986877 
	C886.928894,403.977356 886.928955,402.183289 886.928955,400.389221 
	C886.928955,359.400116 886.827087,318.410492 887.017578,277.422272 
	C887.054321,269.514282 887.724182,261.528748 888.989258,253.722733 
	C892.167419,234.111115 906.840088,217.725235 924.780884,214.701736 
	C933.516113,213.229599 942.677856,213.370285 951.567139,213.965881 
	C962.305359,214.685410 971.076172,220.174072 978.211975,228.170029 
	C989.347473,240.647736 992.880066,255.942917 993.018921,271.933777 
	C993.390747,314.752014 993.177551,357.575287 993.196594,400.396576 
	C993.197388,402.188904 993.196655,403.981232 993.196655,405.988159 
	C1007.900452,405.988159 1022.145508,405.988159 1036.859741,405.988159 
	C1036.859741,404.017456 1036.859619,402.227509 1036.859619,400.437592 
	C1036.859619,357.948883 1037.145508,315.457001 1036.677979,272.973450 
	C1036.545288,260.902344 1034.996948,248.705933 1032.716553,236.832260 
	C1029.271973,218.897568 1019.764832,204.027924 1005.752075,192.396835 
	C988.684204,178.229965 968.074707,173.921280 946.621460,173.149017 
	C938.992920,172.874390 931.278748,174.148941 923.643921,175.055740 
	C907.618530,176.959091 893.786011,183.942337 882.025574,194.694565 
	C877.231140,199.078018 873.651550,204.790298 869.467285,209.962250 
	C864.501892,201.576431 858.864136,194.260056 850.785461,188.955231 
	C832.437378,176.906982 812.539185,171.931656 790.580261,173.841278 
	C779.346802,174.818192 768.584656,177.049225 758.136658,181.038284 
	C740.807190,187.654724 725.335022,197.209976 713.755005,211.894241 
	C700.673584,228.482361 694.577820,248.040680 694.303711,268.832245 
	C693.717407,313.312561 694.131775,357.806122 694.153870,402.294250 
	C694.154480,403.550568 694.354126,404.806763 694.453369,405.973907 
	C708.790466,405.973907 722.720398,405.973907 737.002625,405.973907 
	C737.002625,403.945343 736.992004,402.145599 737.004150,400.346008 
	C737.308716,355.234833 737.112122,310.112213 738.137146,265.017365 
	C738.641357,242.833191 748.771667,225.567642 770.847412,216.148865 
M1115.204468,481.753845 
	C1119.223389,482.538177 1118.880859,479.866425 1118.878540,477.264832 
	C1118.851074,445.101318 1118.860840,412.937805 1118.860840,380.774292 
	C1118.860840,379.048462 1118.860840,377.322662 1118.860840,376.532562 
	C1126.330322,383.163147 1132.984619,391.279816 1141.482544,396.234070 
	C1179.797974,418.571960 1219.130249,418.236298 1257.188965,396.318878 
	C1291.225830,376.717560 1308.687500,345.255005 1312.620361,306.680481 
	C1314.795532,285.345947 1311.342041,264.476440 1303.146240,244.322510 
	C1292.729492,218.707199 1275.606323,199.394455 1251.504639,186.208191 
	C1239.669800,179.733261 1226.784790,176.798340 1213.431519,174.792114 
	C1198.134888,172.493958 1182.826904,171.945969 1167.973145,175.269623 
	C1141.065796,181.290375 1117.308594,193.423859 1098.668335,214.704498 
	C1082.744629,232.883774 1075.483643,254.166779 1075.338135,277.696228 
	C1074.929199,343.853882 1075.195435,410.015717 1075.195435,476.175903 
	C1075.195435,477.939270 1075.195435,479.702637 1075.195435,481.753937 
	C1088.643799,481.753937 1101.452148,481.753937 1115.204468,481.753845 
M654.928833,304.500000 
	C654.915710,292.674805 656.059875,280.706329 654.617737,269.058075 
	C652.467041,251.686737 645.898743,235.767059 635.221741,221.458527 
	C621.402222,202.938660 603.993469,189.591995 582.249451,182.045380 
	C563.428589,175.513275 544.169189,171.289215 524.063293,174.054901 
	C514.948486,175.308716 505.621277,176.147552 496.885590,178.803360 
	C476.194061,185.093948 458.955627,196.834244 444.827240,213.470551 
	C436.543701,223.224518 429.891998,233.965347 425.436035,245.606964 
	C417.221497,267.068176 413.933624,289.392944 418.018250,312.477264 
	C423.794952,345.124146 439.290375,371.542328 466.992706,390.247437 
	C486.272247,403.265289 507.785858,409.274750 530.938049,409.912872 
	C554.650635,410.566437 576.561829,405.209106 594.994568,389.682495 
	C601.301758,384.369659 606.358032,377.571747 612.236023,371.180328 
	C612.236023,382.140503 612.236023,393.034180 612.236023,404.011261 
	C626.619446,404.011261 640.547607,404.011261 654.928833,404.011261 
	C654.928833,371.044342 654.928833,338.272156 654.928833,304.500000 
M1586.001831,333.500000 
	C1586.001831,295.434143 1586.001831,257.368286 1586.001831,218.887024 
	C1608.329346,218.887024 1629.899048,218.887024 1651.654175,218.887024 
	C1651.654175,205.394989 1651.654175,192.323669 1651.654175,178.851913 
	C1629.697998,178.851913 1607.963379,178.851913 1586.001953,178.851913 
	C1586.001953,176.311432 1586.000977,174.169510 1586.002075,172.027603 
	C1586.009033,157.611328 1592.403198,148.517502 1606.500732,145.477386 
	C1615.018799,143.640472 1623.978394,143.712585 1632.756836,143.268448 
	C1638.994507,142.952835 1645.260742,143.207245 1651.683594,143.207245 
	C1651.683594,129.458862 1651.683594,116.372704 1651.683594,102.734314 
	C1647.073975,103.171021 1642.715576,103.846779 1638.344360,103.942780 
	C1629.518555,104.136635 1620.685547,103.977043 1611.855957,104.032646 
	C1595.618774,104.134903 1580.611084,108.053825 1567.381714,117.952515 
	C1552.161865,129.340469 1543.286865,144.265854 1543.230347,163.364883 
	C1542.994019,243.166534 1543.093262,322.969177 1543.086670,402.771454 
	C1543.086548,403.876709 1543.308594,404.981964 1543.420166,406.023865 
	C1557.676636,406.023865 1571.623169,406.023865 1586.001831,406.023865 
	C1586.001831,382.062073 1586.001831,358.281036 1586.001831,333.500000 
M1387.808594,349.500092 
	C1387.808594,267.750793 1387.808594,186.001495 1387.808594,104.233307 
	C1373.026978,104.233307 1358.771851,104.233307 1344.556885,104.233307 
	C1344.556885,204.984848 1344.556885,305.496796 1344.556885,405.824463 
	C1359.148926,405.824463 1373.372803,405.824463 1387.808594,405.824463 
	C1387.808594,387.124420 1387.808594,368.812286 1387.808594,349.500092 
M1859.494995,179.968979 
	C1849.544556,183.746857 1841.995361,190.651688 1834.757690,199.344254 
	C1834.757690,192.090042 1834.757690,185.572128 1834.757690,179.193146 
	C1820.992432,179.193146 1807.712769,179.193146 1794.473389,179.193146 
	C1794.473389,254.924225 1794.473389,330.457275 1794.473389,405.886688 
	C1809.090820,405.886688 1823.333252,405.886688 1837.862061,405.886688 
	C1837.862061,403.757629 1837.862061,401.949280 1837.862061,400.140961 
	C1837.862061,359.984131 1837.766968,319.826843 1837.953003,279.670868 
	C1837.984863,272.768738 1838.490723,265.706635 1840.027710,259.005127 
	C1844.104980,241.226822 1853.754639,227.715210 1871.928345,222.050125 
	C1878.657959,219.952377 1885.688232,218.819305 1892.801270,217.196136 
	C1892.801270,202.839996 1892.801270,188.067917 1892.801270,173.017532 
	C1881.459229,173.768707 1870.447144,174.916458 1859.494995,179.968979 
M1702.000000,232.500000 
	C1702.000000,290.577759 1702.000000,348.655548 1702.000000,406.688568 
	C1716.718018,406.688568 1730.640991,406.688568 1744.602539,406.688568 
	C1744.602539,330.673218 1744.602539,254.969070 1744.602539,179.308426 
	C1730.279297,179.308426 1716.355469,179.308426 1702.000000,179.308426 
	C1702.000000,196.908401 1702.000000,214.204193 1702.000000,232.500000 
M1486.000000,283.500000 
	C1486.000000,248.746017 1486.000000,213.992035 1486.000000,179.276031 
	C1471.709473,179.276031 1457.973633,179.276031 1444.365234,179.276031 
	C1444.365234,255.073685 1444.365234,330.594971 1444.365234,406.016327 
	C1458.345825,406.016327 1471.960571,406.016327 1486.000000,406.016327 
	C1486.000000,365.386719 1486.000000,324.943359 1486.000000,283.500000 
M1710.099121,105.456123 
	C1708.902222,106.318214 1707.417480,106.958557 1706.555176,108.078293 
	C1700.712524,115.663971 1698.730103,124.140312 1702.677734,133.052399 
	C1706.448364,141.564453 1713.472656,145.148438 1722.892456,145.117264 
	C1731.553467,145.088593 1737.492554,140.896011 1741.293091,133.933151 
	C1745.090454,126.975937 1744.867065,119.509583 1740.887207,112.363625 
	C1735.389893,102.493713 1722.461304,98.510269 1710.099121,105.456123 
M1442.066406,121.685875 
	C1442.429932,123.966850 1442.719482,126.262566 1443.170044,128.526215 
	C1444.937744,137.409286 1453.278931,144.251526 1462.873535,144.747879 
	C1472.544312,145.248184 1481.192871,139.278763 1484.224243,130.011505 
	C1487.060913,121.339409 1483.500732,110.855103 1476.906616,105.924889 
	C1465.163574,97.145149 1444.672974,102.392258 1442.066406,121.685875 
z"/>
<path fill="#B72025" opacity="1.000000" stroke="none" 
	d="
M158.143311,322.046753 
	C165.796768,330.899048 173.605972,339.622314 181.069611,348.631866 
	C194.510727,364.856995 208.599075,380.643463 220.820114,397.753815 
	C232.555359,414.184021 238.637009,433.489044 243.020203,453.188171 
	C246.739243,469.902435 248.200531,486.912537 246.811462,503.866730 
	C245.708603,517.327820 243.190567,530.796997 239.954605,543.930847 
	C234.799164,564.855347 225.033646,583.786682 212.051315,601.017151 
	C210.961136,602.464050 209.831390,603.881226 208.860016,605.656128 
	C207.933334,606.000000 206.866653,606.000000 205.554871,605.659790 
	C202.078415,601.565430 198.845551,597.812622 195.616043,594.056824 
	C185.512421,582.306885 175.459824,570.512634 165.291031,558.819397 
	C157.488480,549.847107 149.474976,541.058411 141.672592,532.085999 
	C131.503387,520.391846 121.500977,508.552582 111.330482,496.859558 
	C103.527443,487.888397 95.502182,479.110443 87.706245,470.133240 
	C75.382812,455.942505 63.282928,441.556366 50.871456,427.443726 
	C41.297520,416.557495 32.033649,405.573608 24.816809,392.831299 
	C13.078935,372.106506 5.569966,350.157379 2.921176,326.503174 
	C2.820974,325.608307 1.664344,324.831696 1.000001,324.000000 
	C1.000000,309.312439 1.000000,294.624878 1.415339,279.553375 
	C2.197501,278.668335 2.836368,278.195557 2.891948,277.662018 
	C5.159633,255.893539 11.480823,235.290329 22.120811,216.262054 
	C27.503441,206.635895 34.624935,197.982071 41.249104,189.070587 
	C44.181072,192.234695 46.847649,195.196442 49.463482,198.202347 
	C66.683556,217.990295 83.895477,237.785355 101.104485,257.582947 
	C113.957581,272.369385 126.742241,287.215912 139.677353,301.930237 
	C145.685669,308.764954 151.979111,315.349060 158.143311,322.046753 
z"/>
<path fill="#ED2426" opacity="1.000000" stroke="none" 
	d="
M152.600006,0.999998 
	C153.655762,2.483609 153.996094,4.242924 155.015228,5.408931 
	C167.602692,19.810408 180.325272,34.093666 192.939377,48.472027 
	C204.127502,61.224983 215.254318,74.032089 226.352463,86.863503 
	C240.889572,103.670959 255.329437,120.562660 269.894989,137.345337 
	C277.678558,146.313690 285.848450,154.953110 293.470459,164.053833 
	C305.696259,178.651566 318.468140,192.903961 329.431488,208.417297 
	C341.782745,225.894653 348.736786,246.040573 353.028137,267.044189 
	C356.280304,282.961670 357.876984,299.060272 356.881744,315.224670 
	C355.322357,340.552429 349.778961,365.074890 337.909332,387.674103 
	C332.541901,397.893372 325.673187,407.331604 319.290558,416.995300 
	C318.811310,417.720886 316.762299,417.409637 315.097839,417.001282 
	C314.106445,416.181305 313.460266,415.940369 312.814056,415.699432 
	C312.754761,415.539764 312.662842,415.401794 312.497009,414.827209 
	C311.299805,412.767151 310.261993,411.062622 308.970093,409.579407 
	C294.216003,392.640594 279.402893,375.753174 264.644928,358.817749 
	C233.818604,323.443207 202.843735,288.195831 172.287796,252.589096 
	C159.961914,238.225784 148.520157,223.099930 136.801819,208.222031 
	C134.262802,204.998444 132.263763,201.349533 129.997650,197.531342 
	C128.275650,193.290359 126.555878,189.421555 124.871170,185.537537 
	C116.452927,166.129730 112.444122,145.656372 111.124481,124.707573 
	C110.231926,110.538498 111.508820,96.414154 113.878510,82.330406 
	C118.399635,55.460033 128.196884,30.943781 144.406906,8.996996 
	C146.221237,6.540572 147.482330,3.675539 149.000000,1.000000 
	C150.066666,1.000000 151.133347,1.000000 152.600006,0.999998 
z"/>
<path fill="#FDFDFD" opacity="1.000000" stroke="none" 
	d="
M2136.000000,310.531342 
	C2132.214355,311.251160 2128.428711,311.718018 2124.642822,311.721130 
	C2067.658203,311.767822 2010.673584,311.753479 1953.688965,311.753479 
	C1951.891235,311.753479 1950.093384,311.753479 1948.345581,311.753479 
	C1947.045044,330.558716 1975.443970,362.560822 1998.109741,369.052704 
	C2037.704468,380.393372 2069.027588,362.507416 2084.358887,335.160858 
	C2098.716553,335.160858 2113.166748,335.160858 2128.094482,335.160858 
	C2123.955322,347.227417 2118.100342,358.077728 2110.427979,367.959381 
	C2078.966064,408.481415 2022.097778,423.748840 1975.185059,403.044739 
	C1937.267578,386.310547 1914.611450,356.420990 1906.197021,315.994324 
	C1901.768311,294.716217 1902.998291,273.443451 1910.139771,252.867249 
	C1921.020752,221.516418 1941.009399,197.986435 1971.489258,183.981720 
	C1985.766479,177.421768 2000.682251,174.175522 2016.523682,173.831696 
	C2037.647827,173.373215 2057.396484,177.551193 2075.738037,188.013214 
	C2087.932129,194.968842 2098.829346,203.400650 2107.981689,214.306046 
	C2119.838379,228.433304 2127.713623,244.366623 2132.494873,261.999359 
	C2133.538330,265.846161 2134.368164,269.750763 2135.648193,273.314362 
	C2136.000000,285.354218 2136.000000,297.708466 2136.000000,310.531342 
M2086.323242,256.300964 
	C2072.785645,226.080948 2039.509644,208.610443 2006.407593,214.343750 
	C1975.433838,219.708435 1949.950317,247.093033 1947.398315,277.757507 
	C1995.602539,277.757507 2043.806641,277.757507 2093.096680,277.757507 
	C2090.828369,270.492645 2088.723145,263.749176 2086.323242,256.300964 
z"/>
<path fill="transparent" opacity="1.000000" stroke="none" 
	d="
M1.000001,324.468658 
	C1.664344,324.831696 2.820974,325.608307 2.921176,326.503174 
	C5.569966,350.157379 13.078935,372.106506 24.816809,392.831299 
	C32.033649,405.573608 41.297520,416.557495 50.871456,427.443726 
	C63.282928,441.556366 75.382812,455.942505 87.706245,470.133240 
	C95.502182,479.110443 103.527443,487.888397 111.330482,496.859558 
	C121.500977,508.552582 131.503387,520.391846 141.672592,532.085999 
	C149.474976,541.058411 157.488480,549.847107 165.291031,558.819397 
	C175.459824,570.512634 185.512421,582.306885 195.616043,594.056824 
	C198.845551,597.812622 202.078415,601.565430 205.154877,605.659790 
	C137.061249,606.000000 69.122498,606.000000 1.000000,606.000000 
	C1.000000,512.312500 1.000000,418.624908 1.000001,324.468658 
z"/>
<path fill="transparent" opacity="1.000000" stroke="none" 
	d="
M148.531342,1.000000 
	C147.482330,3.675539 146.221237,6.540572 144.406906,8.996996 
	C128.196884,30.943781 118.399635,55.460033 113.878510,82.330406 
	C111.508820,96.414154 110.231926,110.538498 111.124481,124.707573 
	C112.444122,145.656372 116.452927,166.129730 124.871170,185.537537 
	C126.555878,189.421555 128.275650,193.290359 129.608170,197.542374 
	C101.186745,189.028839 72.452423,186.072006 43.158764,188.039520 
	C42.410290,188.089783 41.692398,188.595383 40.960243,188.888626 
	C34.624935,197.982071 27.503441,206.635895 22.120811,216.262054 
	C11.480823,235.290329 5.159633,255.893539 2.891948,277.662018 
	C2.836368,278.195557 2.197501,278.668335 1.415339,279.084717 
	C1.000000,186.428543 1.000000,93.857094 1.000000,1.000000 
	C50.020523,1.000000 99.041603,1.000000 148.531342,1.000000 
z"/>
<path fill="#FEFEFE" opacity="1.000000" stroke="none" 
	d="
M770.467407,216.248779 
	C748.771667,225.567642 738.641357,242.833191 738.137146,265.017365 
	C737.112122,310.112213 737.308716,355.234833 737.004150,400.346008 
	C736.992004,402.145599 737.002625,403.945343 737.002625,405.973907 
	C722.720398,405.973907 708.790466,405.973907 694.453369,405.973907 
	C694.354126,404.806763 694.154480,403.550568 694.153870,402.294250 
	C694.131775,357.806122 693.717407,313.312561 694.303711,268.832245 
	C694.577820,248.040680 700.673584,228.482361 713.755005,211.894241 
	C725.335022,197.209976 740.807190,187.654724 758.136658,181.038284 
	C768.584656,177.049225 779.346802,174.818192 790.580261,173.841278 
	C812.539185,171.931656 832.437378,176.906982 850.785461,188.955231 
	C858.864136,194.260056 864.501892,201.576431 869.467285,209.962250 
	C873.651550,204.790298 877.231140,199.078018 882.025574,194.694565 
	C893.786011,183.942337 907.618530,176.959091 923.643921,175.055740 
	C931.278748,174.148941 938.992920,172.874390 946.621460,173.149017 
	C968.074707,173.921280 988.684204,178.229965 1005.752075,192.396835 
	C1019.764832,204.027924 1029.271973,218.897568 1032.716553,236.832260 
	C1034.996948,248.705933 1036.545288,260.902344 1036.677979,272.973450 
	C1037.145508,315.457001 1036.859619,357.948883 1036.859619,400.437592 
	C1036.859619,402.227509 1036.859741,404.017456 1036.859741,405.988159 
	C1022.145508,405.988159 1007.900452,405.988159 993.196655,405.988159 
	C993.196655,403.981232 993.197388,402.188904 993.196594,400.396576 
	C993.177551,357.575287 993.390747,314.752014 993.018921,271.933777 
	C992.880066,255.942917 989.347473,240.647736 978.211975,228.170029 
	C971.076172,220.174072 962.305359,214.685410 951.567139,213.965881 
	C942.677856,213.370285 933.516113,213.229599 924.780884,214.701736 
	C906.840088,217.725235 892.167419,234.111115 888.989258,253.722733 
	C887.724182,261.528748 887.054321,269.514282 887.017578,277.422272 
	C886.827087,318.410492 886.928955,359.400116 886.928955,400.389221 
	C886.928955,402.183289 886.928894,403.977356 886.928894,405.986877 
	C872.570496,405.986877 858.625366,405.986877 843.997375,405.986877 
	C843.997375,404.366394 843.997437,402.610382 843.997437,400.854340 
	C843.997498,356.867126 844.121033,312.879395 843.928284,268.893036 
	C843.863708,254.147141 840.175293,240.430664 830.415344,228.740616 
	C822.035095,218.702972 810.915039,214.013123 798.482239,213.512238 
	C789.320862,213.143158 780.062561,215.182632 770.467407,216.248779 
z"/>
<path fill="#FDFDFD" opacity="1.000000" stroke="none" 
	d="
M1114.732422,481.753906 
	C1101.452148,481.753937 1088.643799,481.753937 1075.195435,481.753937 
	C1075.195435,479.702637 1075.195435,477.939270 1075.195435,476.175903 
	C1075.195435,410.015717 1074.929199,343.853882 1075.338135,277.696228 
	C1075.483643,254.166779 1082.744629,232.883774 1098.668335,214.704498 
	C1117.308594,193.423859 1141.065796,181.290375 1167.973145,175.269623 
	C1182.826904,171.945969 1198.134888,172.493958 1213.431519,174.792114 
	C1226.784790,176.798340 1239.669800,179.733261 1251.504639,186.208191 
	C1275.606323,199.394455 1292.729492,218.707199 1303.146240,244.322510 
	C1311.342041,264.476440 1314.795532,285.345947 1312.620361,306.680481 
	C1308.687500,345.255005 1291.225830,376.717560 1257.188965,396.318878 
	C1219.130249,418.236298 1179.797974,418.571960 1141.482544,396.234070 
	C1132.984619,391.279816 1126.330322,383.163147 1118.860840,376.532562 
	C1118.860840,377.322662 1118.860840,379.048462 1118.860840,380.774292 
	C1118.860840,412.937805 1118.851074,445.101318 1118.878540,477.264832 
	C1118.880859,479.866425 1119.223389,482.538177 1114.732422,481.753906 
M1267.015869,316.287598 
	C1268.033447,309.863098 1269.838989,303.450043 1269.932617,297.012115 
	C1270.339233,269.025269 1259.669556,245.912476 1237.744629,228.392776 
	C1207.685181,204.373154 1162.662720,208.961273 1138.018066,238.407455 
	C1122.220947,257.282288 1115.699097,278.801453 1118.730835,303.485352 
	C1120.903687,321.176270 1127.966675,336.376526 1139.846924,349.206604 
	C1151.868896,362.189850 1167.311401,369.880768 1184.728516,371.805450 
	C1209.160278,374.505310 1230.800415,367.035797 1248.071899,349.258087 
	C1256.854126,340.218536 1263.351929,329.434601 1267.015869,316.287598 
z"/>
<path fill="#FEFEFE" opacity="1.000000" stroke="none" 
	d="
M654.928833,305.000000 
	C654.928833,338.272156 654.928833,371.044342 654.928833,404.011261 
	C640.547607,404.011261 626.619446,404.011261 612.236023,404.011261 
	C612.236023,393.034180 612.236023,382.140503 612.236023,371.180328 
	C606.358032,377.571747 601.301758,384.369659 594.994568,389.682495 
	C576.561829,405.209106 554.650635,410.566437 530.938049,409.912872 
	C507.785858,409.274750 486.272247,403.265289 466.992706,390.247437 
	C439.290375,371.542328 423.794952,345.124146 418.018250,312.477264 
	C413.933624,289.392944 417.221497,267.068176 425.436035,245.606964 
	C429.891998,233.965347 436.543701,223.224518 444.827240,213.470551 
	C458.955627,196.834244 476.194061,185.093948 496.885590,178.803360 
	C505.621277,176.147552 514.948486,175.308716 524.063293,174.054901 
	C544.169189,171.289215 563.428589,175.513275 582.249451,182.045380 
	C603.993469,189.591995 621.402222,202.938660 635.221741,221.458527 
	C645.898743,235.767059 652.467041,251.686737 654.617737,269.058075 
	C656.059875,280.706329 654.915710,292.674805 654.928833,305.000000 
M465.989044,324.257263 
	C471.115326,335.580902 478.302032,345.574280 487.938904,353.246582 
	C503.844452,365.909607 521.799011,372.315033 542.714233,370.177063 
	C559.488892,368.462311 574.094177,362.095612 586.151367,351.085846 
	C608.804688,330.400391 617.295654,304.298676 611.047363,274.156219 
	C600.497192,223.261414 550.483459,202.673828 509.652985,217.041672 
	C469.087769,231.316193 447.607666,281.969788 465.989044,324.257263 
z"/>
<path fill="#FEFEFE" opacity="1.000000" stroke="none" 
	d="
M1586.001831,334.000000 
	C1586.001831,358.281036 1586.001831,382.062073 1586.001831,406.023865 
	C1571.623169,406.023865 1557.676636,406.023865 1543.420166,406.023865 
	C1543.308594,404.981964 1543.086548,403.876709 1543.086670,402.771454 
	C1543.093262,322.969177 1542.994019,243.166534 1543.230347,163.364883 
	C1543.286865,144.265854 1552.161865,129.340469 1567.381714,117.952515 
	C1580.611084,108.053825 1595.618774,104.134903 1611.855957,104.032646 
	C1620.685547,103.977043 1629.518555,104.136635 1638.344360,103.942780 
	C1642.715576,103.846779 1647.073975,103.171021 1651.683594,102.734314 
	C1651.683594,116.372704 1651.683594,129.458862 1651.683594,143.207245 
	C1645.260742,143.207245 1638.994507,142.952835 1632.756836,143.268448 
	C1623.978394,143.712585 1615.018799,143.640472 1606.500732,145.477386 
	C1592.403198,148.517502 1586.009033,157.611328 1586.002075,172.027603 
	C1586.000977,174.169510 1586.001953,176.311432 1586.001953,178.851913 
	C1607.963379,178.851913 1629.697998,178.851913 1651.654175,178.851913 
	C1651.654175,192.323669 1651.654175,205.394989 1651.654175,218.887024 
	C1629.899048,218.887024 1608.329346,218.887024 1586.001831,218.887024 
	C1586.001831,257.368286 1586.001831,295.434143 1586.001831,334.000000 
z"/>
<path fill="#FCFCFC" opacity="1.000000" stroke="none" 
	d="
M1387.808594,350.000122 
	C1387.808594,368.812286 1387.808594,387.124420 1387.808594,405.824463 
	C1373.372803,405.824463 1359.148926,405.824463 1344.556885,405.824463 
	C1344.556885,305.496796 1344.556885,204.984848 1344.556885,104.233307 
	C1358.771851,104.233307 1373.026978,104.233307 1387.808594,104.233307 
	C1387.808594,186.001495 1387.808594,267.750793 1387.808594,350.000122 
z"/>
<path fill="#FDFDFD" opacity="1.000000" stroke="none" 
	d="
M1859.779785,179.690994 
	C1870.447144,174.916458 1881.459229,173.768707 1892.801270,173.017532 
	C1892.801270,188.067917 1892.801270,202.839996 1892.801270,217.196136 
	C1885.688232,218.819305 1878.657959,219.952377 1871.928345,222.050125 
	C1853.754639,227.715210 1844.104980,241.226822 1840.027710,259.005127 
	C1838.490723,265.706635 1837.984863,272.768738 1837.953003,279.670868 
	C1837.766968,319.826843 1837.862061,359.984131 1837.862061,400.140961 
	C1837.862061,401.949280 1837.862061,403.757629 1837.862061,405.886688 
	C1823.333252,405.886688 1809.090820,405.886688 1794.473389,405.886688 
	C1794.473389,330.457275 1794.473389,254.924225 1794.473389,179.193146 
	C1807.712769,179.193146 1820.992432,179.193146 1834.757690,179.193146 
	C1834.757690,185.572128 1834.757690,192.090042 1834.757690,199.344254 
	C1841.995361,190.651688 1849.544556,183.746857 1859.779785,179.690994 
z"/>
<path fill="#4C494B" opacity="1.000000" stroke="none" 
	d="
M41.249107,189.070587 
	C41.692398,188.595383 42.410290,188.089783 43.158764,188.039520 
	C72.452423,186.072006 101.186745,189.028839 129.626556,197.907547 
	C132.263763,201.349533 134.262802,204.998444 136.801819,208.222031 
	C148.520157,223.099930 159.961914,238.225784 172.287796,252.589096 
	C202.843735,288.195831 233.818604,323.443207 264.644928,358.817749 
	C279.402893,375.753174 294.216003,392.640594 308.970093,409.579407 
	C310.261993,411.062622 311.299805,412.767151 312.391144,414.760254 
	C304.585846,409.300507 296.960999,403.287842 289.081482,397.629913 
	C269.284821,383.414703 249.820694,368.668762 229.384293,355.430725 
	C208.021408,341.592560 185.133926,330.406433 160.827713,322.427704 
	C160.210266,322.225037 159.548157,322.158508 158.525085,322.037598 
	C151.979111,315.349060 145.685669,308.764954 139.677353,301.930237 
	C126.742241,287.215912 113.957581,272.369385 101.104485,257.582947 
	C83.895477,237.785355 66.683556,217.990295 49.463482,198.202347 
	C46.847649,195.196442 44.181072,192.234695 41.249107,189.070587 
z"/>
<path fill="#B8141A" opacity="1.000000" stroke="none" 
	d="
M1702.000000,232.000000 
	C1702.000000,214.204193 1702.000000,196.908401 1702.000000,179.308426 
	C1716.355469,179.308426 1730.279297,179.308426 1744.602539,179.308426 
	C1744.602539,254.969070 1744.602539,330.673218 1744.602539,406.688568 
	C1730.640991,406.688568 1716.718018,406.688568 1702.000000,406.688568 
	C1702.000000,348.655548 1702.000000,290.577759 1702.000000,232.000000 
z"/>
<path fill="#FFFFFF" opacity="1.000000" stroke="none" 
	d="
M1486.000000,284.000000 
	C1486.000000,324.943359 1486.000000,365.386719 1486.000000,406.016327 
	C1471.960571,406.016327 1458.345825,406.016327 1444.365234,406.016327 
	C1444.365234,330.594971 1444.365234,255.073685 1444.365234,179.276031 
	C1457.973633,179.276031 1471.709473,179.276031 1486.000000,179.276031 
	C1486.000000,213.992035 1486.000000,248.746017 1486.000000,284.000000 
z"/>
<path fill="#B8141A" opacity="1.000000" stroke="none" 
	d="
M1710.429810,105.263596 
	C1722.461304,98.510269 1735.389893,102.493713 1740.887207,112.363625 
	C1744.867065,119.509583 1745.090454,126.975937 1741.293091,133.933151 
	C1737.492554,140.896011 1731.553467,145.088593 1722.892456,145.117264 
	C1713.472656,145.148438 1706.448364,141.564453 1702.677734,133.052399 
	C1698.730103,124.140312 1700.712524,115.663971 1706.555176,108.078293 
	C1707.417480,106.958557 1708.902222,106.318214 1710.429810,105.263596 
z"/>
<path fill="#FCFCFC" opacity="1.000000" stroke="none" 
	d="
M1442.296143,121.333054 
	C1444.672974,102.392258 1465.163574,97.145149 1476.906616,105.924889 
	C1483.500732,110.855103 1487.060913,121.339409 1484.224243,130.011505 
	C1481.192871,139.278763 1472.544312,145.248184 1462.873535,144.747879 
	C1453.278931,144.251526 1444.937744,137.409286 1443.170044,128.526215 
	C1442.719482,126.262566 1442.429932,123.966850 1442.296143,121.333054 
z"/>
<path fill="#4C494B" opacity="1.000000" stroke="none" 
	d="
M312.965393,416.019775 
	C313.460266,415.940369 314.106445,416.181305 314.884796,416.762665 
	C314.383514,416.848755 313.750122,416.594452 312.965393,416.019775 
z"/>
<path fill="transparent" opacity="1.000000" stroke="none" 
	d="
M2086.470459,256.653320 
	C2088.723145,263.749176 2090.828369,270.492645 2093.096680,277.757507 
	C2043.806641,277.757507 1995.602539,277.757507 1947.398193,277.756592 
	C1949.950317,247.093033 1975.433838,219.708435 2006.407593,214.343750 
	C2039.509644,208.610443 2072.785645,226.080948 2086.470459,256.653320 
z"/>
<path fill="transparent" opacity="1.000000" stroke="none" 
	d="
M1266.776855,316.631897 
	C1263.351929,329.434601 1256.854126,340.218536 1248.071899,349.258087 
	C1230.800415,367.035797 1209.160278,374.505310 1184.728516,371.805450 
	C1167.311401,369.880768 1151.868896,362.189850 1139.846924,349.206604 
	C1127.966675,336.376526 1120.903687,321.176270 1118.730835,303.485352 
	C1115.699097,278.801453 1122.220947,257.282288 1138.018066,238.407455 
	C1162.662720,208.961273 1207.685181,204.373154 1237.744629,228.392776 
	C1259.669556,245.912476 1270.339233,269.025269 1269.932617,297.012115 
	C1269.838989,303.450043 1268.033447,309.863098 1266.776855,316.631897 
z"/>
<path fill="transparent" opacity="1.000000" stroke="none" 
	d="
M465.955200,323.860535 
	C447.607666,281.969788 469.087769,231.316193 509.652985,217.041672 
	C550.483459,202.673828 600.497192,223.261414 611.047363,274.156219 
	C617.295654,304.298676 608.804688,330.400391 586.151367,351.085846 
	C574.094177,362.095612 559.488892,368.462311 542.714233,370.177063 
	C521.799011,372.315033 503.844452,365.909607 487.938904,353.246582 
	C478.302032,345.574280 471.115326,335.580902 465.955200,323.860535 
z"/>
</svg>
