<svg width="240" height="53" viewBox="0 0 240 53" id="amp-logo" fill="none" xmlns="http://www.w3.org/2000/svg">
<path d="M27.3367 42.1145V37.2606H27.2203C26.0913 39.1754 24.5722 40.6013 22.6749 41.5209C20.7718 42.4405 18.7522 42.9061 16.6046 42.9061C13.9682 42.9061 11.6169 42.4405 9.54495 41.5209C7.47302 40.6013 5.73284 39.3791 4.31857 37.8485C2.91013 36.3236 1.83343 34.5834 1.10011 32.6279C0.366783 30.6724 0.00012207 28.6587 0.00012207 26.5867C0.00012207 24.6661 0.337683 22.7281 1.0128 20.7725C1.68793 18.8112 2.71225 17.0361 4.09159 15.4356C5.46512 13.8351 7.18784 12.5256 9.25977 11.5129C11.3317 10.4944 13.7761 9.96476 16.6046 9.98804C19.8231 10.0171 22.9892 10.9716 25.3929 12.2462C30.1827 14.7896 33.2033 20.045 33.2033 24.4741V42.1204H27.3309L27.3367 42.1145ZM27.4473 26.5285C27.4473 24.8756 27.1621 23.3566 26.5976 21.9831C26.0331 20.6096 25.2648 19.4339 24.2812 18.4562C23.3035 17.4784 22.1511 16.716 20.8358 16.1689C19.5146 15.6218 18.1062 15.3483 16.5988 15.3483C14.7888 15.3483 13.2174 15.6975 11.8788 16.3901C10.5402 17.0885 9.42273 17.9789 8.52063 19.0731C7.61852 20.1614 6.94922 21.372 6.51272 22.6873C6.08204 24.0026 5.86088 25.283 5.86088 26.5285C5.86088 27.9603 6.12278 29.3338 6.6524 30.6491C7.1762 31.9702 7.91534 33.1342 8.85237 34.1528C9.79521 35.1713 10.9243 35.9861 12.2396 36.6088C13.5549 37.2315 14.9925 37.54 16.5348 37.54C18.0771 37.54 19.5088 37.249 20.8241 36.667C22.1395 36.085 23.286 35.2935 24.2696 34.2983C25.2532 33.303 26.0214 32.1332 26.586 30.7946C27.1505 29.4618 27.4357 28.0359 27.4357 26.5285H27.4473Z" fill="#4A494A"/>
<path d="M80.6017 42.3989V24.8516C80.6017 24.1706 80.5493 23.2918 80.4329 22.2325C80.3223 21.1733 80.0255 20.1315 79.5482 19.1305C79.071 18.1236 78.3318 17.2506 77.325 16.5115C76.3181 15.7723 74.9213 15.3998 73.1404 15.3998C71.2372 15.3998 69.7881 15.7665 68.7812 16.5115C67.7743 17.2506 67.0352 18.1236 66.5579 19.1305C66.0807 20.1373 65.8072 21.1733 65.7315 22.2325C65.6558 23.2976 65.6209 24.1531 65.6209 24.7933V42.3931H59.6961V24.8457C59.7311 23.5129 59.6845 22.3664 59.5565 21.4003C59.4226 20.4283 59.0327 19.4157 58.3866 18.3506C57.63 17.2099 56.7338 16.4358 55.7094 16.0168C54.6851 15.5977 53.6201 15.3882 52.5201 15.3882C50.582 15.3882 49.0804 15.7665 48.0212 16.5289C46.9561 17.2913 46.1763 18.1818 45.6816 19.2061C45.1869 20.2305 44.9017 21.2781 44.826 22.3373C44.7503 23.4024 44.7154 24.2172 44.7154 24.7875V42.3873H38.7906V24.3045C38.7906 19.34 40.4552 13.1533 49.3191 10.5227C50.3317 10.22 51.9555 9.97559 53.4338 9.97559C54.3825 9.97559 55.3544 10.092 56.338 10.319C57.3274 10.5459 58.2644 10.8777 59.1607 11.3142C60.0512 11.7507 60.8485 12.3036 61.5527 12.9671C62.2511 13.6306 62.8157 14.3988 63.2347 15.2776C63.5024 14.8993 63.8633 14.4046 64.3172 13.7935C64.7712 13.1882 65.3998 12.5946 66.1971 12.0301C66.9945 11.4597 67.9897 10.9766 69.1886 10.575C70.3875 10.1793 71.8716 9.97559 73.6642 9.97559C76.3239 9.97559 78.5821 10.4819 80.4387 11.483C82.3011 12.4898 83.7445 13.8866 84.7688 15.6676C85.9444 17.7977 86.5322 20.3585 86.5322 23.3558V42.3814H80.6075L80.6017 42.3989Z" fill="#4A494A"/>
<path d="M92.0558 24.7235C92.0558 19.241 94.9076 14.0729 101.897 11.2036C103.905 10.3655 106.146 9.8941 108.806 9.98722C111.466 10.0862 113.823 10.4819 115.871 11.4713C117.92 12.4607 119.631 13.747 120.999 15.3416C122.366 16.9363 123.402 18.758 124.101 20.8124C124.805 22.8611 125.154 24.9388 125.154 27.0224C125.154 29.106 124.799 31.0033 124.078 32.9181C123.356 34.8387 122.314 36.5614 120.941 38.1037C119.579 39.646 117.902 40.874 115.929 41.8053C113.957 42.7365 111.71 43.2021 109.207 43.2021C107.537 43.2021 106.082 43.01 104.848 42.6317C103.614 42.2534 102.543 41.7994 101.63 41.264C100.716 40.7285 99.9768 40.1524 99.4065 39.5238C98.8361 38.9011 98.3996 38.3423 98.097 37.8418H97.9806V52.9389H92.0558V24.7235ZM119.229 26.679C119.229 25.2764 118.962 23.8971 118.432 22.5468C117.902 21.1966 117.163 19.9918 116.209 18.9268C115.26 17.8675 114.119 17.012 112.792 16.366C111.46 15.7199 109.999 15.3998 108.404 15.3998C106.81 15.3998 105.424 15.7141 104.126 16.3427C102.834 16.9654 101.729 17.7977 100.797 18.8162C99.8662 19.8405 99.1446 21.0278 98.6324 22.378C98.1202 23.7283 97.8642 25.1251 97.8642 26.5626C97.8642 28.1573 98.1377 29.6414 98.6906 31.0091C99.2435 32.3768 100 33.5641 100.972 34.571C101.938 35.5778 103.079 36.3635 104.388 36.9339C105.698 37.5043 107.089 37.7894 108.573 37.7894C109.976 37.7894 111.314 37.5275 112.589 36.9921C113.863 36.4625 114.992 35.7117 115.982 34.7397C116.965 33.7736 117.757 32.6038 118.339 31.2361C118.933 29.8684 119.224 28.3494 119.224 26.679H119.229Z" fill="#4A494A"/>
<path d="M135.548 42.3985H129.623V0.244141H135.548V42.3985Z" fill="#4A494A"/>
<path d="M149.19 2.92747C149.19 4.54543 147.88 5.85494 146.263 5.85494C144.645 5.85494 143.329 4.53961 143.329 2.92747C143.329 1.31532 144.639 0 146.263 0C147.886 0 149.19 1.3095 149.19 2.92747Z" fill="#4A494A"/>
<path d="M157.373 42.3984V9.29993C157.373 7.58884 157.693 6.14548 158.339 4.96984C158.991 3.79419 159.916 2.78733 161.133 1.94925C161.779 1.57095 162.378 1.26831 162.931 1.04133C163.478 0.814345 164.049 0.645564 164.637 0.529164C165.224 0.418584 165.853 0.342923 166.516 0.302183C167.174 0.261443 167.948 0.243983 168.821 0.243983L172.418 0.220703V5.6566H168.821C166.848 5.6566 165.434 5.98834 164.578 6.65182C163.723 7.3153 163.292 8.19995 163.292 9.29993V10.8364H172.412L172.4 16.249H163.292V42.3984H157.367H157.373Z" fill="#4A494A"/>
<path d="M185.275 2.92747C185.275 4.54543 183.965 5.85494 182.347 5.85494C180.729 5.85494 179.414 4.53961 179.414 2.92747C179.414 1.31532 180.724 0 182.347 0C183.971 0 185.275 1.3095 185.275 2.92747Z" fill="#F01E1E"/>
<path d="M192.491 42.3989V10.837H198.02V13.683H198.131C198.736 12.81 199.435 12.129 200.209 11.6343C200.983 11.1396 201.757 10.773 202.519 10.5227C203.276 10.2783 203.98 10.1269 204.626 10.0687C205.272 10.0105 205.784 9.98145 206.163 9.98145V16.0808C205.709 16.0808 205.063 16.1739 204.224 16.366C203.386 16.5581 202.606 16.8432 201.885 17.2215C200.936 17.757 200.121 18.6358 199.435 19.8697C198.754 21.1035 198.41 22.8611 198.41 25.1426V42.4048H192.485L192.491 42.3989Z" fill="#4A494A"/>
<path d="M213.688 29.211C214.066 30.73 214.63 32.0337 215.37 33.1162C216.109 34.1988 216.964 35.0892 217.93 35.7935C218.902 36.4977 219.915 37.0098 220.98 37.3299C222.045 37.6559 223.069 37.813 224.053 37.813C226.253 37.813 228.127 37.2717 229.669 36.1892C231.206 35.1067 232.335 33.8845 233.057 32.5168H238.981C238.219 34.5654 237.235 36.2765 236.013 37.6442C234.797 39.0119 233.499 40.1061 232.114 40.9209C230.729 41.7357 229.303 42.3293 227.842 42.6844C226.381 43.0452 225.042 43.2256 223.826 43.2256C221.585 43.2256 219.484 42.7775 217.529 41.887C215.573 40.9907 213.874 39.786 212.43 38.267C210.987 36.7479 209.846 34.9787 209.014 32.9707C208.182 30.957 207.763 28.8327 207.763 26.592C207.763 24.2407 208.188 22.0466 209.043 20.0154C209.899 17.9842 211.057 16.2266 212.518 14.7483C213.979 13.2642 215.69 12.1118 217.645 11.2737C219.601 10.4356 221.696 10.0166 223.937 10.0166C226.177 10.0166 228.098 10.424 230.03 11.2446C231.968 12.0594 233.679 13.1885 235.158 14.6319C236.642 16.0752 237.817 17.7863 238.69 19.7593C239.563 21.7381 240 23.8799 240 26.1962C240 26.7259 239.982 27.3195 239.942 27.9597C239.907 28.6057 239.866 29.0248 239.831 29.211H213.682H213.688ZM234.081 24.6539C234.005 23.5132 233.703 22.3841 233.167 21.2609C232.632 20.1434 231.91 19.154 231.002 18.2985C230.088 17.4429 229.023 16.7504 227.813 16.2149C226.596 15.6853 225.287 15.4176 223.878 15.4176C222.47 15.4176 221.12 15.6853 219.921 16.2149C218.722 16.7445 217.668 17.4429 216.761 18.2985C215.847 19.154 215.125 20.1434 214.596 21.2609C214.066 22.3841 213.763 23.5132 213.682 24.6539H234.075H234.081Z" fill="#4A494A"/>
<path d="M149.336 10.8369H143.504V42.393H149.336V10.8369Z" fill="#4A494A"/>
<path d="M185.484 10.8369H179.652V42.393H185.484V10.8369Z" fill="#F01E1E"/>
</svg>
