<svg version="1.1" id="Layer_1" xmlns="http://www.w3.org/2000/svg" xmlns:xlink="http://www.w3.org/1999/xlink" x="0px" y="0px"
	 width="200px" viewBox="0 0 2135 605" enable-background="new 0 0 2135 605" xml:space="preserve">
<path fill="transparent" opacity="1.000000" stroke="none" 
	d="
M2136.000000,312.000000 
	C2136.000000,409.982025 2136.000000,507.964081 2136.000000,606.000000 
	C1493.969116,606.000000 851.938171,606.000000 209.270233,605.672241 
	C220.406616,591.042053 229.610840,575.170959 235.541687,557.690613 
	C239.236206,546.801636 241.264786,535.347412 244.318512,523.993713 
	C244.690048,523.239075 244.784103,522.637634 244.941574,521.652710 
	C245.018295,520.233032 245.031616,519.196899 245.363937,517.933411 
	C245.743134,516.153259 245.803329,514.600464 245.932159,512.644409 
	C246.014923,510.878754 246.029068,509.516266 246.386078,507.888855 
	C246.772125,503.766235 246.815292,499.908630 246.926514,495.596771 
	C246.950806,492.083527 246.907059,489.024475 246.915497,485.538269 
	C246.659042,482.691071 246.350372,480.271088 246.037735,477.421570 
	C245.981216,474.985748 245.928696,472.979431 245.929184,470.624451 
	C245.668625,469.467957 245.355042,468.660126 245.015503,467.625488 
	C244.989548,467.398621 244.847031,466.964752 244.889923,466.733765 
	C244.932831,466.502777 244.858734,466.038757 244.925446,465.696716 
	C244.952499,464.893677 244.912842,464.432678 244.925873,463.622559 
	C244.667526,462.461243 244.356506,461.649017 244.043091,460.477112 
	C243.984039,459.402191 243.927383,458.687042 243.915024,457.658661 
	C243.652939,456.849152 243.346558,456.352814 243.039551,455.443207 
	C239.498810,434.390320 232.713013,414.688904 220.720779,397.680084 
	C208.621521,380.519440 194.456543,364.804901 181.032669,348.592560 
	C173.580994,339.592957 165.794373,330.870667 158.538849,322.032104 
	C179.037689,327.927704 197.638428,337.238068 215.834671,347.419220 
	C243.576401,362.941254 269.075958,381.718292 293.955963,401.397369 
	C299.619202,405.876770 305.560303,410.004883 311.606323,414.263611 
	C312.093903,414.706421 312.348633,415.180298 312.794891,415.942688 
	C313.599884,416.486938 314.213379,416.742706 314.977814,417.290527 
	C316.632599,417.320557 318.935333,417.589996 319.517578,416.714813 
	C325.840942,407.210052 332.678131,397.926056 337.849274,387.802399 
	C347.024078,369.840546 352.593018,350.676666 355.214355,330.517578 
	C357.255310,314.821716 357.626129,299.195099 355.812500,283.618378 
	C354.002625,268.073853 350.340668,252.850784 344.652435,238.146713 
	C337.431366,219.480225 327.163788,202.715637 314.097046,187.641357 
	C306.104218,178.420547 297.812683,169.458923 289.807098,160.248947 
	C277.502960,146.093735 265.395721,131.767273 253.079971,117.622299 
	C242.795807,105.810692 232.252411,94.224808 221.968933,82.412643 
	C209.653854,68.266853 197.560669,53.927891 185.244263,39.783287 
	C174.960556,27.973125 164.469086,16.344002 154.158432,4.557030 
	C153.403488,3.693975 153.369293,2.200420 153.000000,0.999998 
	C813.880615,1.000000 1474.761230,1.000000 2136.000000,1.000000 
	C2136.000000,91.363930 2136.000000,181.728333 2135.606934,272.524292 
	C2134.854248,272.443512 2134.255127,271.968536 2134.168457,271.413422 
	C2129.032959,238.620880 2112.182617,212.914886 2085.249268,194.321747 
	C2061.875488,178.186096 2035.657593,171.589172 2006.957642,174.818985 
	C1975.491455,178.360123 1949.813477,192.253281 1930.100464,216.613968 
	C1907.059204,245.087585 1899.726685,278.325134 1905.401489,313.918030 
	C1909.936768,342.362579 1923.570190,366.542725 1945.869507,385.406189 
	C1973.696289,408.945557 2005.652100,417.673126 2041.289185,410.619019 
	C2073.422363,404.258514 2099.200439,387.502258 2116.866455,359.486298 
	C2121.463379,352.195648 2124.841064,344.135986 2128.980225,336.035797 
	C2126.926758,335.430267 2126.319580,335.096802 2125.711670,335.094666 
	C2113.046143,335.049683 2100.379395,334.953278 2087.717285,335.152283 
	C2086.305664,335.174469 2084.668945,336.689301 2083.567139,337.902863 
	C2078.485840,343.499451 2073.990479,349.698059 2068.495117,354.836365 
	C2048.906738,373.151947 2025.699097,376.730927 2000.539429,369.918396 
	C1984.677490,365.623474 1971.803589,356.427948 1961.947754,343.301788 
	C1955.058960,334.127228 1949.924438,324.032776 1947.675903,312.000000 
	C2010.744141,312.000000 2073.372070,312.000000 2136.000000,312.000000 
M747.661072,186.122894 
	C739.533142,191.490189 730.691528,196.038666 723.414062,202.381668 
	C703.324280,219.891830 694.686646,243.287109 694.223816,269.157990 
	C693.430908,313.474365 694.038574,357.815247 693.939514,402.145538 
	C693.931396,405.789612 694.962708,407.142242 698.745850,407.068878 
	C709.407837,406.862000 720.087036,406.717987 730.737854,407.120758 
	C735.900452,407.316010 737.135376,405.637421 737.107910,400.656708 
	C736.906738,364.160126 736.843994,327.660858 737.092957,291.164856 
	C737.169800,279.913666 737.523193,268.543549 739.219116,257.452545 
	C741.768311,240.781021 749.860535,227.059097 765.531982,219.331711 
	C781.071411,211.669357 797.406250,211.972244 813.404663,217.518570 
	C818.966797,219.446838 824.462036,223.232071 828.508545,227.554138 
	C840.338989,240.190155 844.040527,255.979019 844.018555,272.917236 
	C843.963135,315.747772 844.058044,358.578674 843.914368,401.408813 
	C843.899841,405.738983 845.037292,407.231110 849.512390,407.097046 
	C859.835815,406.787781 870.174805,407.007874 880.507507,406.997101 
	C886.979065,406.990356 886.995972,406.977234 886.996887,400.391510 
	C887.002502,359.394104 886.896606,318.396179 887.091370,277.399689 
	C887.128174,269.650665 887.625671,261.759247 889.173950,254.191986 
	C892.416626,238.343781 900.636292,225.691620 915.549316,218.223221 
	C924.808350,213.586304 934.813232,213.954208 944.802979,213.952545 
	C957.253052,213.950470 967.886292,218.300507 976.493896,227.088928 
	C988.579041,239.428101 992.716858,255.141357 992.867310,271.703003 
	C993.259338,314.863403 993.062500,358.029907 992.906372,401.193298 
	C992.889832,405.763672 994.190247,407.230286 998.795776,407.097321 
	C1009.452881,406.789642 1020.136780,406.702698 1030.785889,407.126221 
	C1036.040649,407.335205 1037.120483,405.501709 1037.101196,400.610138 
	C1036.927734,356.613586 1037.123901,312.615509 1036.927734,268.619171 
	C1036.865601,254.670914 1034.859619,240.939682 1030.070312,227.684982 
	C1021.725037,204.589432 1005.981750,188.811935 983.151550,180.194016 
	C965.223145,173.426422 946.619690,172.788712 927.754333,174.917557 
	C909.510193,176.976303 893.499207,183.716248 880.619263,196.990723 
	C876.639893,201.092026 873.321106,205.834274 869.730957,210.244965 
	C866.894897,206.379654 864.434998,202.409027 861.379150,198.967575 
	C846.978088,182.749374 827.855225,176.099152 807.123718,174.202454 
	C786.601562,172.324921 766.853699,176.436829 747.661072,186.122894 
M1113.314209,481.998657 
	C1118.077637,482.787445 1119.105591,480.488525 1119.083252,476.087646 
	C1118.925659,444.931366 1118.999756,413.773895 1119.000000,382.616821 
	C1119.000000,380.769531 1119.000000,378.922241 1119.000000,377.299530 
	C1125.721680,383.519348 1131.400757,390.171448 1138.363647,394.954834 
	C1159.035034,409.155487 1182.124634,414.094025 1207.182617,412.249390 
	C1224.558350,410.970276 1240.627441,406.682953 1255.756836,398.139771 
	C1276.051025,386.680206 1291.020142,370.225250 1301.099243,349.479828 
	C1313.222656,324.527039 1316.132568,298.103912 1310.889893,270.967285 
	C1304.390259,237.324890 1288.168579,209.985443 1258.707275,191.028961 
	C1233.926758,175.084229 1206.488281,172.485245 1178.369019,174.348328 
	C1159.292725,175.612289 1141.776001,182.891464 1125.390137,192.826401 
	C1093.776733,211.993927 1075.821045,239.989609 1075.281860,276.837616 
	C1074.304565,343.636108 1075.029541,410.459106 1074.934692,477.271759 
	C1074.929321,481.064758 1076.237671,482.125488 1079.868652,482.063171 
	C1090.695435,481.877289 1101.527588,481.998352 1113.314209,481.998657 
M636.009094,222.538879 
	C626.876465,209.858566 615.756897,199.184738 602.088013,191.671005 
	C575.808777,177.225418 547.739563,171.453766 517.700745,174.846100 
	C495.207306,177.386307 475.382172,185.985580 458.376007,200.366440 
	C430.099670,224.277725 417.202301,255.882614 416.245697,292.333374 
	C415.976196,302.602570 417.782074,313.166534 420.193329,323.221863 
	C428.247528,356.809082 447.659882,382.003937 478.558716,397.718292 
	C501.963745,409.621521 526.924255,413.065430 552.838501,409.029327 
	C572.912537,405.902832 590.426208,397.778351 603.680115,381.818573 
	C606.261902,378.709686 608.759705,375.531067 612.001465,371.509857 
	C612.001465,381.611603 612.239502,390.579285 611.901978,399.525269 
	C611.730896,404.059418 613.345520,405.198456 617.628845,405.086578 
	C627.953369,404.816956 638.297852,404.757080 648.617676,405.105408 
	C653.547424,405.271820 655.149719,403.986511 655.122070,398.778351 
	C654.901611,357.286713 655.047729,315.793274 654.924683,274.300842 
	C654.912109,270.045715 654.067383,265.756531 653.271851,261.546844 
	C650.610229,247.461670 644.110596,235.016479 636.009094,222.538879 
M1587.790649,161.601166 
	C1589.347534,159.080460 1590.564087,156.250748 1592.522461,154.094757 
	C1599.509033,146.402664 1609.009399,144.552200 1618.717407,144.100037 
	C1628.360962,143.650909 1638.042969,143.901535 1647.705200,144.043533 
	C1650.952637,144.091263 1652.086914,142.931732 1652.044067,139.695068 
	C1651.905518,129.199417 1651.936279,118.700294 1652.028076,108.203613 
	C1652.052979,105.357132 1651.285278,103.850929 1648.104736,103.983406 
	C1631.029541,104.694641 1613.760132,103.930473 1596.913574,106.254807 
	C1565.989014,110.521523 1542.987427,134.192612 1542.997925,166.965363 
	C1543.007690,197.624771 1542.999756,228.284164 1543.000000,258.943573 
	C1543.000366,306.432312 1543.052490,353.921204 1542.914795,401.409546 
	C1542.902344,405.738678 1544.037964,407.233887 1548.512207,407.096863 
	C1558.666870,406.785919 1568.837646,407.004730 1579.001953,406.998596 
	C1585.988159,406.994354 1585.997925,406.987152 1585.998169,399.900208 
	C1586.000977,342.413818 1585.998901,284.927460 1586.000977,227.441071 
	C1586.001221,220.008148 1586.007935,220.004333 1593.658569,220.002747 
	C1611.487671,219.999023 1629.317383,219.918381 1647.145264,220.065399 
	C1650.777466,220.095352 1652.159424,219.080078 1652.071777,215.277725 
	C1651.849487,205.618484 1651.715088,195.938812 1652.116943,186.291138 
	C1652.329590,181.185989 1650.733276,179.799942 1645.688110,179.884369 
	C1627.864014,180.182709 1610.027832,179.790100 1592.205200,180.128906 
	C1586.955322,180.228714 1585.284058,178.492554 1585.984619,173.604385 
	C1586.523682,169.844009 1586.920166,166.063187 1587.790649,161.601166 
M1343.998901,172.500000 
	C1343.998901,191.822113 1343.998779,211.144226 1343.998901,230.466339 
	C1343.998901,287.266632 1344.026611,344.066986 1343.941284,400.867157 
	C1343.935181,404.933044 1344.296509,407.321472 1349.465942,407.122070 
	C1360.110596,406.711487 1370.782104,407.007050 1381.442627,406.997192 
	C1387.979736,406.991150 1387.997681,406.978790 1387.998291,400.464355 
	C1388.002930,339.333252 1388.001099,278.202118 1388.001099,217.071014 
	C1388.001099,181.258499 1387.937500,145.445740 1388.083740,109.633835 
	C1388.101196,105.376663 1387.076172,103.770500 1382.536255,103.899872 
	C1371.551514,104.212952 1360.546997,104.192078 1349.560791,103.907257 
	C1345.173706,103.793526 1343.859009,105.121834 1343.904785,109.537025 
	C1344.119263,130.189453 1343.999390,150.845352 1343.998901,172.500000 
M1803.557373,407.000305 
	C1813.053223,407.000061 1822.559814,406.731049 1832.040527,407.109558 
	C1837.006836,407.307831 1838.119019,405.555328 1838.097900,400.860138 
	C1837.924194,362.211121 1837.957764,323.560852 1838.043579,284.911224 
	C1838.057129,278.789062 1838.258789,272.618469 1839.035400,266.554993 
	C1842.895874,236.409439 1860.621094,221.949127 1888.762817,219.092819 
	C1891.980957,218.766159 1893.075806,217.859695 1893.042358,214.667969 
	C1892.916748,202.674545 1892.864014,190.676758 1893.069824,178.685516 
	C1893.135986,174.832993 1891.674072,173.851486 1888.088745,173.947891 
	C1872.920532,174.355789 1859.057373,178.663132 1846.870483,187.728531 
	C1842.864868,190.708191 1839.441284,194.470078 1834.997192,198.570145 
	C1834.997192,193.596558 1834.796875,189.336517 1835.056396,185.104675 
	C1835.292603,181.252548 1834.020264,179.817978 1830.001465,179.922272 
	C1820.345459,180.172836 1810.678589,179.996338 1801.016113,180.002075 
	C1794.010132,180.006241 1794.000732,180.013336 1794.000488,187.077255 
	C1793.998047,257.546509 1793.984741,328.015778 1794.015137,398.485046 
	C1794.019287,408.093140 1792.938965,406.870605 1803.557373,407.000305 
M1745.000610,218.500000 
	C1745.000610,205.760437 1745.000610,193.020859 1745.000610,180.362793 
	C1730.234985,180.362793 1716.329712,180.362793 1702.429565,180.362793 
	C1702.429565,256.051056 1702.429565,331.374817 1702.429565,406.634949 
	C1716.766479,406.634949 1730.670898,406.634949 1745.000610,406.634949 
	C1745.000610,344.014435 1745.000610,281.757202 1745.000610,218.500000 
M1444.000000,230.500000 
	C1444.000122,287.290039 1444.052979,344.080200 1443.903687,400.869843 
	C1443.891357,405.572723 1445.014771,407.282990 1449.966431,407.110413 
	C1460.445679,406.745148 1470.948242,406.890411 1481.437500,407.054291 
	C1484.894043,407.108276 1486.114258,405.958679 1486.055176,402.465759 
	C1485.883423,392.309784 1485.999634,382.148956 1485.999634,371.990051 
	C1486.000000,310.037292 1485.951294,248.084442 1486.095825,186.132019 
	C1486.106812,181.430527 1484.986938,179.714264 1480.033936,179.890366 
	C1469.721436,180.257034 1459.383789,180.149002 1449.063110,179.928375 
	C1445.156982,179.844864 1443.874268,181.087128 1443.925659,185.034927 
	C1444.118652,199.854431 1444.001221,214.677979 1444.000000,230.500000 
M1701.000977,126.237045 
	C1701.770264,135.980240 1709.227051,143.999924 1718.200317,145.005142 
	C1732.383301,146.593979 1739.772827,139.147018 1742.700928,130.521835 
	C1747.561035,116.205635 1736.849487,102.302666 1722.321777,102.171974 
	C1712.425659,102.082954 1699.825684,109.330101 1701.000977,126.237045 
M1483.629517,115.210854 
	C1478.252319,104.695503 1469.168701,100.287865 1458.356079,103.103477 
	C1447.610474,105.901649 1442.128174,114.372375 1442.335571,124.249275 
	C1442.512085,132.647186 1446.363892,140.056717 1454.964111,143.375443 
	C1463.636963,146.722198 1472.068604,145.993256 1478.970703,139.370346 
	C1485.743652,132.871414 1486.319092,124.611778 1483.629517,115.210854 
z"/>
<path fill="#B72025" opacity="1.000000" stroke="none" 
	d="
M245.044922,518.160706 
	C245.031616,519.196899 245.018295,520.233032 244.793457,521.897461 
	C244.401611,523.066101 244.221313,523.606506 244.041016,524.146851 
	C241.264786,535.347412 239.236206,546.801636 235.541687,557.690613 
	C229.610840,575.170959 220.406616,591.042053 208.816605,605.672241 
	C207.933334,606.000000 206.866653,606.000000 205.614151,605.684204 
	C200.252319,599.368774 195.075195,593.369995 189.900528,587.369141 
	C175.361084,570.508423 160.880157,553.596680 146.264313,536.802429 
	C135.964661,524.967651 125.400925,513.362671 115.100983,501.528107 
	C100.484314,484.733582 86.013939,467.811829 71.457916,450.964417 
	C60.674267,438.483215 49.577221,426.261078 39.108219,413.522125 
	C18.310869,388.215302 6.806389,358.925934 2.916167,326.510986 
	C2.808076,325.610321 1.662038,324.834198 0.999998,324.000000 
	C1.000000,309.312439 1.000000,294.624878 1.411627,279.559784 
	C2.186665,278.677185 2.817918,278.200470 2.874886,277.662933 
	C5.181313,255.899872 11.470131,235.281494 22.122944,216.252151 
	C27.510344,206.628540 34.626598,197.972763 41.230057,189.087234 
	C71.597771,223.788849 101.661896,258.312988 131.817368,292.757202 
	C140.462112,302.631409 149.370956,312.274384 158.158707,322.023407 
	C165.794373,330.870667 173.580994,339.592957 181.032669,348.592560 
	C194.456543,364.804901 208.621521,380.519440 220.720779,397.680084 
	C232.713013,414.688904 239.498810,434.390320 243.105179,455.721741 
	C243.404526,456.933014 243.637634,457.452423 243.870728,457.971863 
	C243.927383,458.687042 243.984039,459.402191 244.059021,460.805847 
	C244.342636,462.320099 244.607925,463.145874 244.873199,463.971649 
	C244.912842,464.432678 244.952499,464.893677 244.902588,465.812103 
	C244.776001,466.501953 244.787338,466.733704 244.847031,466.964752 
	C244.847031,466.964752 244.989548,467.398621 245.033005,467.953003 
	C245.343033,469.329285 245.609604,470.151184 245.876175,470.973114 
	C245.928696,472.979431 245.981216,474.985748 246.025208,477.850677 
	C246.298889,481.128021 246.581100,483.546722 246.863297,485.965454 
	C246.907059,489.024475 246.950806,492.083527 246.766891,495.967407 
	C246.373886,500.579437 246.208557,504.366608 246.043213,508.153809 
	C246.029068,509.516266 246.014923,510.878754 245.775879,512.980469 
	C245.382294,515.200012 245.213623,516.680359 245.044922,518.160706 
z"/>
<path fill="#ED2426" opacity="1.000000" stroke="none" 
	d="
M152.600006,0.999998 
	C153.369293,2.200420 153.403488,3.693975 154.158432,4.557030 
	C164.469086,16.344002 174.960556,27.973125 185.244263,39.783287 
	C197.560669,53.927891 209.653854,68.266853 221.968933,82.412643 
	C232.252411,94.224808 242.795807,105.810692 253.079971,117.622299 
	C265.395721,131.767273 277.502960,146.093735 289.807098,160.248947 
	C297.812683,169.458923 306.104218,178.420547 314.097046,187.641357 
	C327.163788,202.715637 337.431366,219.480225 344.652435,238.146713 
	C350.340668,252.850784 354.002625,268.073853 355.812500,283.618378 
	C357.626129,299.195099 357.255310,314.821716 355.214355,330.517578 
	C352.593018,350.676666 347.024078,369.840546 337.849274,387.802399 
	C332.678131,397.926056 325.840942,407.210052 319.517578,416.714813 
	C318.935333,417.589996 316.632599,417.320557 314.852997,416.924042 
	C313.919281,416.061707 313.261322,415.857910 312.603363,415.654175 
	C312.348633,415.180298 312.093903,414.706421 311.737854,413.869904 
	C310.482147,411.890564 309.447937,410.169891 308.153900,408.673950 
	C299.250336,398.380890 290.294586,388.132904 281.351654,377.873901 
	C247.080856,338.559753 212.715912,299.327179 178.584091,259.892761 
	C165.568802,244.855484 152.937363,229.477234 140.448303,213.998322 
	C136.442810,209.033905 133.455795,203.247696 129.987076,197.476288 
	C128.259476,193.240280 126.516762,189.378754 124.841003,185.488373 
	C116.467873,166.049637 112.383766,145.573578 111.116524,124.596397 
	C110.139633,108.425613 111.674072,92.342003 114.928078,76.403900 
	C119.931686,51.896252 129.317932,29.388409 144.202042,9.210237 
	C146.072983,6.673840 147.413651,3.746309 149.000000,1.000001 
	C150.066666,1.000000 151.133347,1.000000 152.600006,0.999998 
z"/>
<path fill="#4A494A" opacity="1.000000" stroke="none" 
	d="
M2136.000000,311.531342 
	C2073.372070,312.000000 2010.744141,312.000000 1947.675903,312.000000 
	C1949.924438,324.032776 1955.058960,334.127228 1961.947754,343.301788 
	C1971.803589,356.427948 1984.677490,365.623474 2000.539429,369.918396 
	C2025.699097,376.730927 2048.906738,373.151947 2068.495117,354.836365 
	C2073.990479,349.698059 2078.485840,343.499451 2083.567139,337.902863 
	C2084.668945,336.689301 2086.305664,335.174469 2087.717285,335.152283 
	C2100.379395,334.953278 2113.046143,335.049683 2125.711670,335.094666 
	C2126.319580,335.096802 2126.926758,335.430267 2128.980225,336.035797 
	C2124.841064,344.135986 2121.463379,352.195648 2116.866455,359.486298 
	C2099.200439,387.502258 2073.422363,404.258514 2041.289185,410.619019 
	C2005.652100,417.673126 1973.696289,408.945557 1945.869507,385.406189 
	C1923.570190,366.542725 1909.936768,342.362579 1905.401489,313.918030 
	C1899.726685,278.325134 1907.059204,245.087585 1930.100464,216.613968 
	C1949.813477,192.253281 1975.491455,178.360123 2006.957642,174.818985 
	C2035.657593,171.589172 2061.875488,178.186096 2085.249268,194.321747 
	C2112.182617,212.914886 2129.032959,238.620880 2134.168457,271.413422 
	C2134.255127,271.968536 2134.854248,272.443512 2135.606934,272.977936 
	C2136.000000,285.687561 2136.000000,298.375122 2136.000000,311.531342 
M2021.500000,279.000000 
	C2044.782959,279.000000 2068.065918,279.000000 2091.351074,279.000000 
	C2090.988770,250.319672 2064.364258,217.896027 2026.379395,214.168457 
	C1984.661377,210.074570 1949.711304,243.394272 1947.596680,279.000000 
	C1971.919800,279.000000 1996.209961,279.000000 2021.500000,279.000000 
z"/>
<path fill="transparent" opacity="1.000000" stroke="none" 
	d="
M0.999998,324.468658 
	C1.662038,324.834198 2.808076,325.610321 2.916167,326.510986 
	C6.806389,358.925934 18.310869,388.215302 39.108219,413.522125 
	C49.577221,426.261078 60.674267,438.483215 71.457916,450.964417 
	C86.013939,467.811829 100.484314,484.733582 115.100983,501.528107 
	C125.400925,513.362671 135.964661,524.967651 146.264313,536.802429 
	C160.880157,553.596680 175.361084,570.508423 189.900528,587.369141 
	C195.075195,593.369995 200.252319,599.368774 205.214157,605.684204 
	C137.061249,606.000000 69.122498,606.000000 1.000000,606.000000 
	C1.000000,512.312500 1.000000,418.624908 0.999998,324.468658 
z"/>
<path fill="transparent" opacity="1.000000" stroke="none" 
	d="
M148.531342,1.000001 
	C147.413651,3.746309 146.072983,6.673840 144.202042,9.210237 
	C129.317932,29.388409 119.931686,51.896252 114.928078,76.403900 
	C111.674072,92.342003 110.139633,108.425613 111.116524,124.596397 
	C112.383766,145.573578 116.467873,166.049637 124.841003,185.488373 
	C126.516762,189.378754 128.259476,193.240280 129.601151,197.488342 
	C114.559654,194.891968 99.932495,191.673355 85.197952,189.060181 
	C78.080544,187.797913 70.761406,187.174652 63.533318,187.172302 
	C56.009457,187.169846 48.485241,188.264481 40.961182,188.879395 
	C34.626598,197.972763 27.510344,206.628540 22.122944,216.252151 
	C11.470131,235.281494 5.181313,255.899872 2.874886,277.662933 
	C2.817918,278.200470 2.186665,278.677185 1.411627,279.091125 
	C1.000000,186.428543 1.000000,93.857094 1.000000,1.000000 
	C50.020523,1.000000 99.041603,1.000000 148.531342,1.000001 
z"/>
<path fill="#4A494A" opacity="1.000000" stroke="none" 
	d="
M748.014160,185.994293 
	C766.853699,176.436829 786.601562,172.324921 807.123718,174.202454 
	C827.855225,176.099152 846.978088,182.749374 861.379150,198.967575 
	C864.434998,202.409027 866.894897,206.379654 869.730957,210.244965 
	C873.321106,205.834274 876.639893,201.092026 880.619263,196.990723 
	C893.499207,183.716248 909.510193,176.976303 927.754333,174.917557 
	C946.619690,172.788712 965.223145,173.426422 983.151550,180.194016 
	C1005.981750,188.811935 1021.725037,204.589432 1030.070312,227.684982 
	C1034.859619,240.939682 1036.865601,254.670914 1036.927734,268.619171 
	C1037.123901,312.615509 1036.927734,356.613586 1037.101196,400.610138 
	C1037.120483,405.501709 1036.040649,407.335205 1030.785889,407.126221 
	C1020.136780,406.702698 1009.452881,406.789642 998.795776,407.097321 
	C994.190247,407.230286 992.889832,405.763672 992.906372,401.193298 
	C993.062500,358.029907 993.259338,314.863403 992.867310,271.703003 
	C992.716858,255.141357 988.579041,239.428101 976.493896,227.088928 
	C967.886292,218.300507 957.253052,213.950470 944.802979,213.952545 
	C934.813232,213.954208 924.808350,213.586304 915.549316,218.223221 
	C900.636292,225.691620 892.416626,238.343781 889.173950,254.191986 
	C887.625671,261.759247 887.128174,269.650665 887.091370,277.399689 
	C886.896606,318.396179 887.002502,359.394104 886.996887,400.391510 
	C886.995972,406.977234 886.979065,406.990356 880.507507,406.997101 
	C870.174805,407.007874 859.835815,406.787781 849.512390,407.097046 
	C845.037292,407.231110 843.899841,405.738983 843.914368,401.408813 
	C844.058044,358.578674 843.963135,315.747772 844.018555,272.917236 
	C844.040527,255.979019 840.338989,240.190155 828.508545,227.554138 
	C824.462036,223.232071 818.966797,219.446838 813.404663,217.518570 
	C797.406250,211.972244 781.071411,211.669357 765.531982,219.331711 
	C749.860535,227.059097 741.768311,240.781021 739.219116,257.452545 
	C737.523193,268.543549 737.169800,279.913666 737.092957,291.164856 
	C736.843994,327.660858 736.906738,364.160126 737.107910,400.656708 
	C737.135376,405.637421 735.900452,407.316010 730.737854,407.120758 
	C720.087036,406.717987 709.407837,406.862000 698.745850,407.068878 
	C694.962708,407.142242 693.931396,405.789612 693.939514,402.145538 
	C694.038574,357.815247 693.430908,313.474365 694.223816,269.157990 
	C694.686646,243.287109 703.324280,219.891830 723.414062,202.381668 
	C730.691528,196.038666 739.533142,191.490189 748.014160,185.994293 
z"/>
<path fill="#4A494A" opacity="1.000000" stroke="none" 
	d="
M1112.835938,481.999084 
	C1101.527588,481.998352 1090.695435,481.877289 1079.868652,482.063171 
	C1076.237671,482.125488 1074.929321,481.064758 1074.934692,477.271759 
	C1075.029541,410.459106 1074.304565,343.636108 1075.281860,276.837616 
	C1075.821045,239.989609 1093.776733,211.993927 1125.390137,192.826401 
	C1141.776001,182.891464 1159.292725,175.612289 1178.369019,174.348328 
	C1206.488281,172.485245 1233.926758,175.084229 1258.707275,191.028961 
	C1288.168579,209.985443 1304.390259,237.324890 1310.889893,270.967285 
	C1316.132568,298.103912 1313.222656,324.527039 1301.099243,349.479828 
	C1291.020142,370.225250 1276.051025,386.680206 1255.756836,398.139771 
	C1240.627441,406.682953 1224.558350,410.970276 1207.182617,412.249390 
	C1182.124634,414.094025 1159.035034,409.155487 1138.363647,394.954834 
	C1131.400757,390.171448 1125.721680,383.519348 1119.000000,377.299530 
	C1119.000000,378.922241 1119.000000,380.769531 1119.000000,382.616821 
	C1118.999756,413.773895 1118.925659,444.931366 1119.083252,476.087646 
	C1119.105591,480.488525 1118.077637,482.787445 1112.835938,481.999084 
M1268.524170,308.913605 
	C1271.097290,296.132233 1269.859619,283.691162 1266.249023,271.175903 
	C1257.104736,239.478241 1227.139771,212.499130 1191.499634,213.861603 
	C1166.769653,214.806976 1147.489258,225.333206 1133.545288,245.082870 
	C1116.136597,269.739868 1113.022461,296.783722 1124.187866,324.869812 
	C1135.521484,353.379272 1160.419067,371.022766 1190.501099,372.862915 
	C1207.555786,373.906128 1223.296997,368.950073 1237.203247,358.872284 
	C1254.068848,346.649841 1264.554077,330.319427 1268.524170,308.913605 
z"/>
<path fill="#4A494A" opacity="1.000000" stroke="none" 
	d="
M636.250122,222.807129 
	C644.110596,235.016479 650.610229,247.461670 653.271851,261.546844 
	C654.067383,265.756531 654.912109,270.045715 654.924683,274.300842 
	C655.047729,315.793274 654.901611,357.286713 655.122070,398.778351 
	C655.149719,403.986511 653.547424,405.271820 648.617676,405.105408 
	C638.297852,404.757080 627.953369,404.816956 617.628845,405.086578 
	C613.345520,405.198456 611.730896,404.059418 611.901978,399.525269 
	C612.239502,390.579285 612.001465,381.611603 612.001465,371.509857 
	C608.759705,375.531067 606.261902,378.709686 603.680115,381.818573 
	C590.426208,397.778351 572.912537,405.902832 552.838501,409.029327 
	C526.924255,413.065430 501.963745,409.621521 478.558716,397.718292 
	C447.659882,382.003937 428.247528,356.809082 420.193329,323.221863 
	C417.782074,313.166534 415.976196,302.602570 416.245697,292.333374 
	C417.202301,255.882614 430.099670,224.277725 458.376007,200.366440 
	C475.382172,185.985580 495.207306,177.386307 517.700745,174.846100 
	C547.739563,171.453766 575.808777,177.225418 602.088013,191.671005 
	C615.756897,199.184738 626.876465,209.858566 636.250122,222.807129 
M459.502350,297.003357 
	C459.647827,297.648743 459.872528,298.287445 459.927399,298.940460 
	C461.758820,320.737762 470.817688,338.822632 487.530273,353.045380 
	C504.810883,367.751495 524.624207,373.674377 547.053101,370.012360 
	C574.040039,365.606079 593.335754,350.460846 605.200012,326.207275 
	C613.866638,308.490265 615.092896,289.784882 609.988708,270.597076 
	C598.943787,229.076172 560.230896,207.866913 521.764343,214.347427 
	C504.763184,217.211639 490.799835,225.847458 479.380951,238.996826 
	C465.050629,255.498825 459.597870,274.868011 459.502350,297.003357 
z"/>
<path fill="#4A494A" opacity="1.000000" stroke="none" 
	d="
M1587.585327,161.946304 
	C1586.920166,166.063187 1586.523682,169.844009 1585.984619,173.604385 
	C1585.284058,178.492554 1586.955322,180.228714 1592.205200,180.128906 
	C1610.027832,179.790100 1627.864014,180.182709 1645.688110,179.884369 
	C1650.733276,179.799942 1652.329590,181.185989 1652.116943,186.291138 
	C1651.715088,195.938812 1651.849487,205.618484 1652.071777,215.277725 
	C1652.159424,219.080078 1650.777466,220.095352 1647.145264,220.065399 
	C1629.317383,219.918381 1611.487671,219.999023 1593.658569,220.002747 
	C1586.007935,220.004333 1586.001221,220.008148 1586.000977,227.441071 
	C1585.998901,284.927460 1586.000977,342.413818 1585.998169,399.900208 
	C1585.997925,406.987152 1585.988159,406.994354 1579.001953,406.998596 
	C1568.837646,407.004730 1558.666870,406.785919 1548.512207,407.096863 
	C1544.037964,407.233887 1542.902344,405.738678 1542.914795,401.409546 
	C1543.052490,353.921204 1543.000366,306.432312 1543.000000,258.943573 
	C1542.999756,228.284164 1543.007690,197.624771 1542.997925,166.965363 
	C1542.987427,134.192612 1565.989014,110.521523 1596.913574,106.254807 
	C1613.760132,103.930473 1631.029541,104.694641 1648.104736,103.983406 
	C1651.285278,103.850929 1652.052979,105.357132 1652.028076,108.203613 
	C1651.936279,118.700294 1651.905518,129.199417 1652.044067,139.695068 
	C1652.086914,142.931732 1650.952637,144.091263 1647.705200,144.043533 
	C1638.042969,143.901535 1628.360962,143.650909 1618.717407,144.100037 
	C1609.009399,144.552200 1599.509033,146.402664 1592.522461,154.094757 
	C1590.564087,156.250748 1589.347534,159.080460 1587.585327,161.946304 
z"/>
<path fill="#4A494A" opacity="1.000000" stroke="none" 
	d="
M1343.998901,172.000000 
	C1343.999390,150.845352 1344.119263,130.189453 1343.904785,109.537025 
	C1343.859009,105.121834 1345.173706,103.793526 1349.560791,103.907257 
	C1360.546997,104.192078 1371.551514,104.212952 1382.536255,103.899872 
	C1387.076172,103.770500 1388.101196,105.376663 1388.083740,109.633835 
	C1387.937500,145.445740 1388.001099,181.258499 1388.001099,217.071014 
	C1388.001099,278.202118 1388.002930,339.333252 1387.998291,400.464355 
	C1387.997681,406.978790 1387.979736,406.991150 1381.442627,406.997192 
	C1370.782104,407.007050 1360.110596,406.711487 1349.465942,407.122070 
	C1344.296509,407.321472 1343.935181,404.933044 1343.941284,400.867157 
	C1344.026611,344.066986 1343.998901,287.266632 1343.998901,230.466339 
	C1343.998779,211.144226 1343.998901,191.822113 1343.998901,172.000000 
z"/>
<path fill="#4A494A" opacity="1.000000" stroke="none" 
	d="
M1803.067749,407.000305 
	C1792.938965,406.870605 1794.019287,408.093140 1794.015137,398.485046 
	C1793.984741,328.015778 1793.998047,257.546509 1794.000488,187.077255 
	C1794.000732,180.013336 1794.010132,180.006241 1801.016113,180.002075 
	C1810.678589,179.996338 1820.345459,180.172836 1830.001465,179.922272 
	C1834.020264,179.817978 1835.292603,181.252548 1835.056396,185.104675 
	C1834.796875,189.336517 1834.997192,193.596558 1834.997192,198.570145 
	C1839.441284,194.470078 1842.864868,190.708191 1846.870483,187.728531 
	C1859.057373,178.663132 1872.920532,174.355789 1888.088745,173.947891 
	C1891.674072,173.851486 1893.135986,174.832993 1893.069824,178.685516 
	C1892.864014,190.676758 1892.916748,202.674545 1893.042358,214.667969 
	C1893.075806,217.859695 1891.980957,218.766159 1888.762817,219.092819 
	C1860.621094,221.949127 1842.895874,236.409439 1839.035400,266.554993 
	C1838.258789,272.618469 1838.057129,278.789062 1838.043579,284.911224 
	C1837.957764,323.560852 1837.924194,362.211121 1838.097900,400.860138 
	C1838.119019,405.555328 1837.006836,407.307831 1832.040527,407.109558 
	C1822.559814,406.731049 1813.053223,407.000061 1803.067749,407.000305 
z"/>
<path fill="#4C494B" opacity="1.000000" stroke="none" 
	d="
M41.230053,189.087234 
	C48.485241,188.264481 56.009457,187.169846 63.533318,187.172302 
	C70.761406,187.174652 78.080544,187.797913 85.197952,189.060181 
	C99.932495,191.673355 114.559654,194.891968 129.616898,197.849533 
	C133.455795,203.247696 136.442810,209.033905 140.448303,213.998322 
	C152.937363,229.477234 165.568802,244.855484 178.584091,259.892761 
	C212.715912,299.327179 247.080856,338.559753 281.351654,377.873901 
	C290.294586,388.132904 299.250336,398.380890 308.153900,408.673950 
	C309.447937,410.169891 310.482147,411.890564 311.505066,413.900940 
	C305.560303,410.004883 299.619202,405.876770 293.955963,401.397369 
	C269.075958,381.718292 243.576401,362.941254 215.834671,347.419220 
	C197.638428,337.238068 179.037689,327.927704 158.538849,322.032104 
	C149.370956,312.274384 140.462112,302.631409 131.817368,292.757202 
	C101.661896,258.312988 71.597771,223.788849 41.230053,189.087234 
z"/>
<path fill="#B8141A" opacity="1.000000" stroke="none" 
	d="
M1745.000610,219.000000 
	C1745.000610,281.757202 1745.000610,344.014435 1745.000610,406.634949 
	C1730.670898,406.634949 1716.766479,406.634949 1702.429565,406.634949 
	C1702.429565,331.374817 1702.429565,256.051056 1702.429565,180.362793 
	C1716.329712,180.362793 1730.234985,180.362793 1745.000610,180.362793 
	C1745.000610,193.020859 1745.000610,205.760437 1745.000610,219.000000 
z"/>
<path fill="#4A494A" opacity="1.000000" stroke="none" 
	d="
M1444.000000,230.000000 
	C1444.001221,214.677979 1444.118652,199.854431 1443.925659,185.034927 
	C1443.874268,181.087128 1445.156982,179.844864 1449.063110,179.928375 
	C1459.383789,180.149002 1469.721436,180.257034 1480.033936,179.890366 
	C1484.986938,179.714264 1486.106812,181.430527 1486.095825,186.132019 
	C1485.951294,248.084442 1486.000000,310.037292 1485.999634,371.990051 
	C1485.999634,382.148956 1485.883423,392.309784 1486.055176,402.465759 
	C1486.114258,405.958679 1484.894043,407.108276 1481.437500,407.054291 
	C1470.948242,406.890411 1460.445679,406.745148 1449.966431,407.110413 
	C1445.014771,407.282990 1443.891357,405.572723 1443.903687,400.869843 
	C1444.052979,344.080200 1444.000122,287.290039 1444.000000,230.000000 
z"/>
<path fill="#B8141A" opacity="1.000000" stroke="none" 
	d="
M1701.000366,125.789078 
	C1699.825684,109.330101 1712.425659,102.082954 1722.321777,102.171974 
	C1736.849487,102.302666 1747.561035,116.205635 1742.700928,130.521835 
	C1739.772827,139.147018 1732.383301,146.593979 1718.200317,145.005142 
	C1709.227051,143.999924 1701.770264,135.980240 1701.000366,125.789078 
z"/>
<path fill="#4A494A" opacity="1.000000" stroke="none" 
	d="
M1483.798584,115.575645 
	C1486.319092,124.611778 1485.743652,132.871414 1478.970703,139.370346 
	C1472.068604,145.993256 1463.636963,146.722198 1454.964111,143.375443 
	C1446.363892,140.056717 1442.512085,132.647186 1442.335571,124.249275 
	C1442.128174,114.372375 1447.610474,105.901649 1458.356079,103.103477 
	C1469.168701,100.287865 1478.252319,104.695503 1483.798584,115.575645 
z"/>
<path fill="#CD1E25" opacity="1.000000" stroke="none" 
	d="
M246.386108,507.888855 
	C246.208557,504.366608 246.373886,500.579437 246.698837,496.421631 
	C246.815292,499.908630 246.772125,503.766235 246.386108,507.888855 
z"/>
<path fill="#CD1E25" opacity="1.000000" stroke="none" 
	d="
M246.915497,485.538269 
	C246.581100,483.546722 246.298889,481.128021 246.029205,478.280182 
	C246.350372,480.271088 246.659042,482.691071 246.915497,485.538269 
z"/>
<path fill="#CD1E25" opacity="1.000000" stroke="none" 
	d="
M245.363953,517.933411 
	C245.213623,516.680359 245.382294,515.200012 245.707245,513.383667 
	C245.803329,514.600464 245.743134,516.153259 245.363953,517.933411 
z"/>
<path fill="#CD1E25" opacity="1.000000" stroke="none" 
	d="
M244.925873,463.622559 
	C244.607925,463.145874 244.342636,462.320099 244.061432,461.165588 
	C244.356506,461.649017 244.667526,462.461243 244.925873,463.622559 
z"/>
<path fill="#CD1E25" opacity="1.000000" stroke="none" 
	d="
M245.929184,470.624451 
	C245.609604,470.151184 245.343033,469.329285 245.058960,468.179840 
	C245.355042,468.660126 245.668625,469.467957 245.929184,470.624451 
z"/>
<path fill="#4C494B" opacity="1.000000" stroke="none" 
	d="
M312.794891,415.942688 
	C313.261322,415.857910 313.919281,416.061707 314.702057,416.631958 
	C314.213379,416.742706 313.599884,416.486938 312.794891,415.942688 
z"/>
<path fill="#CD1E25" opacity="1.000000" stroke="none" 
	d="
M243.915039,457.658661 
	C243.637634,457.452423 243.404526,456.933014 243.105789,456.135040 
	C243.346558,456.352814 243.652939,456.849152 243.915039,457.658661 
z"/>
<path fill="#CD1E25" opacity="1.000000" stroke="none" 
	d="
M244.318512,523.993713 
	C244.221313,523.606506 244.401611,523.066101 244.730042,522.280945 
	C244.784103,522.637634 244.690048,523.239075 244.318512,523.993713 
z"/>
<path fill="#CD1E25" opacity="1.000000" stroke="none" 
	d="
M244.889923,466.733765 
	C244.787338,466.733704 244.776001,466.501953 244.835892,466.154114 
	C244.858734,466.038757 244.932831,466.502777 244.889923,466.733765 
z"/>
<path fill="transparent" opacity="1.000000" stroke="none" 
	d="
M2021.000000,279.000000 
	C1996.209961,279.000000 1971.919800,279.000000 1947.596680,279.000000 
	C1949.711304,243.394272 1984.661377,210.074570 2026.379395,214.168457 
	C2064.364258,217.896027 2090.988770,250.319672 2091.351074,279.000000 
	C2068.065918,279.000000 2044.782959,279.000000 2021.000000,279.000000 
z"/>
<path fill="transparent" opacity="1.000000" stroke="none" 
	d="
M1268.356567,309.313934 
	C1264.554077,330.319427 1254.068848,346.649841 1237.203247,358.872284 
	C1223.296997,368.950073 1207.555786,373.906128 1190.501099,372.862915 
	C1160.419067,371.022766 1135.521484,353.379272 1124.187866,324.869812 
	C1113.022461,296.783722 1116.136597,269.739868 1133.545288,245.082870 
	C1147.489258,225.333206 1166.769653,214.806976 1191.499634,213.861603 
	C1227.139771,212.499130 1257.104736,239.478241 1266.249023,271.175903 
	C1269.859619,283.691162 1271.097290,296.132233 1268.356567,309.313934 
z"/>
<path fill="transparent" opacity="1.000000" stroke="none" 
	d="
M459.347534,296.577393 
	C459.597870,274.868011 465.050629,255.498825 479.380951,238.996826 
	C490.799835,225.847458 504.763184,217.211639 521.764343,214.347427 
	C560.230896,207.866913 598.943787,229.076172 609.988708,270.597076 
	C615.092896,289.784882 613.866638,308.490265 605.200012,326.207275 
	C593.335754,350.460846 574.040039,365.606079 547.053101,370.012360 
	C524.624207,373.674377 504.810883,367.751495 487.530273,353.045380 
	C470.817688,338.822632 461.758820,320.737762 459.927399,298.940460 
	C459.872528,298.287445 459.647827,297.648743 459.347534,296.577393 
z"/>
</svg>