
<svg width="401" height="666" viewBox="0 0 401 666" fill="none" xmlns="http://www.w3.org/2000/svg">
<path d="M0.998047 12C0.998047 5.37258 6.37063 0 12.998 0H400.998V666H12.998C6.37062 666 0.998047 660.627 0.998047 654V12Z" fill="#F5F5F5"/>
<path d="M0.998047 12C0.998047 5.37258 6.37063 0 12.998 0H400.998V666H12.998C6.37062 666 0.998047 660.627 0.998047 654V12Z" fill="url(#paint0_linear_843_7651)"/>
<path d="M178.687 593.5L173.111 502.589C173.111 502.589 121.896 510.472 84.3112 507.934C65.5532 506.649 81.0758 434.684 81.0758 434.684C81.0758 434.684 33.7505 430.083 29.8957 420.034C26.3162 410.798 80.4219 327.363 80.4219 327.363C80.4219 327.363 77.0145 192.332 210.868 181.37C336.357 171.085 366.646 254.418 371.499 302.868C375.973 347.461 369.674 413.47 327.89 449.3L338.354 550.362C320.998 561.87 178.687 593.5 178.687 593.5Z" stroke="#839EB6" stroke-width="6" stroke-miterlimit="10" stroke-dasharray="10 10"/>
<path d="M183.719 220L209.998 343L87.998 303.769L183.719 220Z" fill="#F1AFA6"/>
<circle cx="246.602" cy="237.671" r="49.6167" fill="#6B9D6B"/>
<mask id="mask0_843_7651" style="mask-type:alpha" maskUnits="userSpaceOnUse" x="213" y="204" width="67" height="67">
<rect x="213.524" y="204.593" width="66.1556" height="66.1556" fill="#C4C4C4"/>
</mask>
<g mask="url(#mask0_843_7651)">
<path d="M237.782 264.89L232.889 256.552L223.586 254.554L224.482 244.906L218.142 237.67L224.482 230.434L223.586 220.787L232.889 218.788L237.782 210.45L246.602 214.24L255.423 210.45L260.316 218.788L269.619 220.787L268.723 230.434L275.063 237.67L268.723 244.906L269.619 254.554L260.316 256.552L255.423 264.89L246.602 261.1L237.782 264.89ZM243.708 246.491L258.317 231.882L255.423 228.918L243.708 240.633L237.782 234.776L234.887 237.67L243.708 246.491ZM239.573 259.584L246.602 256.621L253.7 259.584L257.628 252.969L265.209 251.246L264.519 243.459L269.619 237.67L264.519 231.813L265.209 224.026L257.628 222.372L253.631 215.756L246.602 218.719L239.504 215.756L235.576 222.372L227.996 224.026L228.685 231.813L223.586 237.67L228.685 243.459L227.996 251.315L235.576 252.969L239.573 259.584Z" fill="white"/>
</g>
<circle cx="242.845" cy="398.384" r="49.6167" fill="#E4604D"/>
<mask id="mask1_843_7651" style="mask-type:alpha" maskUnits="userSpaceOnUse" x="209" y="365" width="67" height="67">
<rect x="209.769" y="365.308" width="66.1556" height="66.1556" fill="#C4C4C4"/>
</mask>
<g mask="url(#mask1_843_7651)">
<path d="M233.062 421.816L219.417 408.172V388.601L233.062 374.956H252.633L266.277 388.601V408.172L252.633 421.816H233.062ZM234.991 409.136L242.847 401.28L250.703 409.136L253.597 406.242L245.741 398.386L253.597 390.53L250.703 387.636L242.847 395.492L234.991 387.636L232.097 390.53L239.953 398.386L232.097 406.242L234.991 409.136ZM234.853 417.682H250.841L262.142 406.38V390.392L250.841 379.091H234.853L223.552 390.392V406.38L234.853 417.682Z" fill="white"/>
</g>
<circle cx="137.615" cy="171.617" r="49.6167" fill="#5196C4"/>
<mask id="mask2_843_7651" style="mask-type:alpha" maskUnits="userSpaceOnUse" x="104" y="138" width="67" height="67">
<rect x="104.539" y="138.541" width="66.1556" height="66.1556" fill="#C4C4C4"/>
</mask>
<g mask="url(#mask2_843_7651)">
<path d="M137.616 196.289C136.513 196.289 135.538 195.99 134.689 195.393C133.838 194.796 133.252 194.038 132.93 193.119H132.103C130.955 193.119 129.979 192.706 129.176 191.879C128.371 191.052 127.968 190.087 127.968 188.984V179.888C125.166 178.234 122.973 175.983 121.389 173.135C119.803 170.286 119.01 167.254 119.01 164.038C119.01 158.847 120.813 154.448 124.421 150.843C128.026 147.236 132.425 145.432 137.616 145.432C142.807 145.432 147.207 147.236 150.814 150.843C154.42 154.448 156.222 158.847 156.222 164.038C156.222 167.346 155.43 170.401 153.846 173.203C152.26 176.006 150.066 178.234 147.264 179.888V188.984C147.264 190.087 146.861 191.052 146.056 191.879C145.253 192.706 144.278 193.119 143.129 193.119H142.302C141.98 194.038 141.394 194.796 140.543 195.393C139.694 195.99 138.719 196.289 137.616 196.289ZM132.103 188.984H143.129V186.366H132.103V188.984ZM132.103 183.954H143.129V181.266H132.103V183.954ZM131.552 177.131H135.962V169.138L130.036 163.211L132.379 160.868L137.616 166.105L142.853 160.868L145.196 163.211L139.27 169.138V177.131H143.68C146.161 175.937 148.183 174.179 149.745 171.858C151.307 169.539 152.088 166.932 152.088 164.038C152.088 159.995 150.686 156.573 147.884 153.77C145.081 150.968 141.659 149.567 137.616 149.567C133.573 149.567 130.151 150.968 127.348 153.77C124.546 156.573 123.144 159.995 123.144 164.038C123.144 166.932 123.925 169.539 125.487 171.858C127.05 174.179 129.071 175.937 131.552 177.131Z" fill="white"/>
</g>
<path d="M210.141 160.022C239.874 183.144 282.721 177.784 305.843 148.051L198.17 64.3203C175.048 94.0534 180.408 136.901 210.141 160.022Z" fill="#B5CEB5"/>
<rect x="311.649" y="257" width="90.9297" height="90.0391" transform="rotate(40.6468 311.649 257)" fill="#A8CBE1"/>
<defs>
<linearGradient id="paint0_linear_843_7651" x1="311.58" y1="29.2683" x2="513.282" y2="400.833" gradientUnits="userSpaceOnUse">
<stop stop-color="#315D86"/>
<stop offset="1" stop-color="#283C58"/>
</linearGradient>
</defs>
</svg>
