<svg width="631" height="221" viewBox="0 0 631 221" fill="none" xmlns="http://www.w3.org/2000/svg">
<path d="M165.1 61.4033L427.498 41.3446L438.398 183.942L176 204L165.1 61.4033Z" stroke="#5A7D9E" stroke-width="6" stroke-dasharray="12 12"/>
<path d="M94.5906 96.461C125.912 75.5419 134.346 33.1923 113.427 1.87042L0 77.625C20.919 108.947 63.2687 117.38 94.5906 96.461Z" fill="#90B590"/>
<path d="M563.133 55.2588L574.303 182.889L458.187 128.747L563.133 55.2588Z" fill="#EB887A"/>
<circle cx="346.076" cy="170.5" r="50.5" fill="#EAEFF3"/>
<mask id="mask0_3125_34901" style="mask-type:alpha" maskUnits="userSpaceOnUse" x="336" y="150" width="26" height="27">
<rect x="336.257" y="150.859" width="25.25" height="25.25" fill="#C4C4C4"/>
</mask>
<g mask="url(#mask0_3125_34901)">
<path d="M346.594 173.846L347.725 165.798H343.675C343.377 165.798 343.201 165.719 343.149 165.561C343.096 165.403 343.149 165.193 343.306 164.93L350.04 153.12H351.171L350.04 161.169H354.09C354.388 161.169 354.564 161.247 354.616 161.405C354.669 161.563 354.616 161.774 354.459 162.037L347.725 173.846H346.594Z" fill="#225779"/>
</g>
<path fill-rule="evenodd" clip-rule="evenodd" d="M360.982 151.666C358.47 148.994 354.203 146.851 346.767 147.455L346.767 147.455C339.163 148.072 335.629 152.083 333.879 155.921C332.98 157.892 332.546 159.847 332.341 161.322C332.238 162.056 332.194 162.658 332.175 163.069C332.166 163.274 332.163 163.431 332.162 163.531C332.162 163.581 332.162 163.616 332.162 163.637C332.162 163.647 332.162 163.653 332.163 163.656L332.163 163.656C332.163 163.657 332.163 163.657 332.163 163.657L332.179 164.308L331.82 164.857L331.82 164.857L331.802 164.885C331.789 164.904 331.77 164.933 331.746 164.97C331.697 165.046 331.625 165.157 331.532 165.3C331.348 165.585 331.085 165.994 330.77 166.49C330.14 167.482 329.307 168.812 328.491 170.175C327.669 171.545 326.885 172.913 326.341 173.991C326.272 174.126 326.209 174.253 326.152 174.373C326.541 174.482 326.995 174.585 327.481 174.68C328.204 174.82 328.923 174.925 329.467 174.996C329.738 175.031 329.961 175.057 330.115 175.074C330.192 175.082 330.251 175.088 330.29 175.092C330.31 175.094 330.324 175.096 330.333 175.097L330.344 175.098L330.344 175.098L330.344 175.098L332.702 175.325L332.198 177.64L332.197 177.642L332.194 177.657C332.191 177.671 332.186 177.694 332.18 177.724C332.168 177.784 332.149 177.874 332.126 177.991C332.079 178.225 332.015 178.561 331.945 178.967C331.803 179.785 331.642 180.855 331.552 181.913C331.468 182.897 331.457 183.745 331.53 184.34C333.558 184.407 335.856 184.266 337.772 184.087C338.852 183.985 339.788 183.874 340.453 183.789C340.785 183.746 341.048 183.71 341.227 183.685C341.316 183.672 341.384 183.662 341.429 183.655C341.452 183.652 341.469 183.65 341.479 183.648L341.491 183.646L341.493 183.646L341.493 183.646L341.493 183.646L341.493 183.646L343.768 183.299L344.617 197.021L340.417 197.281L339.849 188.101C339.345 188.159 338.777 188.219 338.164 188.277C335.912 188.488 332.964 188.668 330.412 188.497L330.409 188.497C329.319 188.423 328.548 187.799 328.097 187.117C327.692 186.505 327.508 185.811 327.411 185.248C327.214 184.104 327.257 182.74 327.359 181.556C327.436 180.647 327.557 179.75 327.676 178.987C327.357 178.936 327.021 178.877 326.681 178.811C325.86 178.652 324.936 178.436 324.148 178.147C323.757 178.003 323.322 177.814 322.928 177.559C322.578 177.332 321.99 176.882 321.692 176.113C321.443 175.473 321.54 174.876 321.579 174.656C321.634 174.351 321.728 174.055 321.82 173.801C322.006 173.285 322.281 172.693 322.585 172.093C323.198 170.878 324.044 169.407 324.881 168.011C325.723 166.607 326.576 165.243 327.218 164.233C327.521 163.757 327.777 163.358 327.964 163.069C327.966 163.008 327.968 162.944 327.972 162.877C327.995 162.355 328.05 161.621 328.173 160.742C328.416 158.992 328.935 156.618 330.05 154.175C332.326 149.184 337.061 144.021 346.427 143.26C354.901 142.572 360.508 145.019 364.048 148.783C367.505 152.46 368.722 157.111 369.056 160.415C369.357 163.395 369.301 167.113 368.444 170.726C367.67 173.993 366.208 177.307 363.636 179.861L364.853 191.511L360.667 191.948L359.225 178.144L360.071 177.426C362.267 175.559 363.623 172.823 364.35 169.756C365.075 166.695 365.134 163.462 364.869 160.839L364.869 160.838C364.587 158.053 363.576 154.424 360.982 151.666Z" fill="#225779"/>
<circle cx="494.876" cy="74.3001" r="38.3001" fill="#D3E5F0"/>
<rect width="38.3001" height="38.3001" transform="translate(475.727 55.1504)" fill="#D3E5F0"/>
<path fill-rule="evenodd" clip-rule="evenodd" d="M506.181 60.0172C504.276 57.9913 501.039 56.3657 495.4 56.8238L495.4 56.8238C489.633 57.292 486.953 60.334 485.625 63.2447C484.943 64.7398 484.615 66.2223 484.459 67.3411C484.381 67.8971 484.348 68.3543 484.334 68.666C484.326 68.8215 484.324 68.9402 484.324 69.0159C484.323 69.0537 484.323 69.0808 484.324 69.0963C484.324 69.1039 484.324 69.1088 484.324 69.1107L484.324 69.1109C484.324 69.1118 484.324 69.112 484.324 69.1115L484.336 69.6052L484.064 70.0218L484.064 70.0219L484.05 70.0429C484.041 70.0574 484.026 70.0791 484.008 70.1077C483.971 70.1649 483.916 70.2494 483.846 70.3575C483.706 70.5738 483.507 70.8844 483.268 71.2602C482.79 72.0126 482.158 73.0217 481.539 74.0548C480.916 75.0942 480.321 76.1317 479.908 76.9491C479.856 77.0516 479.809 77.1482 479.765 77.2386C480.06 77.3215 480.405 77.4001 480.773 77.4714C481.322 77.5777 481.867 77.6575 482.28 77.7111C482.485 77.7376 482.654 77.7574 482.771 77.7703C482.829 77.7767 482.874 77.7815 482.904 77.7846C482.919 77.7861 482.929 77.7872 482.936 77.7879L482.944 77.7887L482.945 77.7887L482.945 77.7887L484.733 77.961L484.351 79.7165L484.35 79.7183L484.348 79.7297C484.345 79.7405 484.342 79.7575 484.337 79.7802C484.328 79.8258 484.313 79.8945 484.296 79.9829C484.261 80.16 484.212 80.4155 484.159 80.7232C484.051 81.3431 483.929 82.1552 483.86 82.9577C483.797 83.7037 483.789 84.3465 483.844 84.7979C485.382 84.8492 487.125 84.7419 488.578 84.6058C489.397 84.5291 490.107 84.4449 490.611 84.3801C490.863 84.3477 491.063 84.3202 491.198 84.301C491.266 84.2914 491.318 84.2839 491.352 84.2789C491.369 84.2763 491.382 84.2744 491.39 84.2732L491.398 84.2719L491.4 84.2717L491.4 84.2717L491.4 84.2717L491.4 84.2716L493.126 84.0084L493.77 94.4157L490.584 94.6128L490.153 87.6507C489.771 87.6943 489.34 87.7401 488.875 87.7836C487.167 87.9436 484.932 88.0806 482.996 87.9511L482.994 87.9509C482.167 87.8948 481.582 87.4215 481.24 86.9039C480.933 86.4398 480.794 85.9135 480.72 85.487C480.571 84.6194 480.604 83.5849 480.68 82.6863C480.739 81.997 480.831 81.3172 480.921 80.7385C480.679 80.6994 480.424 80.6549 480.166 80.6048C479.544 80.4843 478.843 80.3205 478.245 80.1011C477.949 79.9923 477.619 79.8486 477.32 79.6549C477.055 79.4832 476.609 79.142 476.383 78.5588C476.194 78.0731 476.267 77.6202 476.297 77.4537C476.339 77.2224 476.41 76.9975 476.48 76.8049C476.621 76.4141 476.829 75.965 477.06 75.5095C477.525 74.5882 478.167 73.4726 478.801 72.4139C479.44 71.3489 480.087 70.3148 480.574 69.5487C480.803 69.1875 480.998 68.8849 481.139 68.6654C481.141 68.6197 481.143 68.5713 481.145 68.5202C481.163 68.124 481.205 67.5675 481.298 66.9006C481.483 65.5736 481.876 63.7733 482.721 61.9203C484.448 58.1348 488.039 54.2193 495.142 53.6426C501.569 53.1204 505.822 54.9759 508.506 57.8308C511.128 60.6195 512.051 64.1469 512.304 66.6527C512.533 68.9132 512.49 71.7325 511.841 74.473C511.253 76.951 510.145 79.464 508.194 81.4009L509.117 90.2369L505.942 90.5684L504.849 80.0992L505.49 79.5543C507.156 78.1381 508.184 76.0632 508.735 73.737C509.285 71.4155 509.33 68.9638 509.129 66.9741L509.129 66.9738C508.915 64.8617 508.148 62.1091 506.181 60.0172Z" fill="#2D5172"/>
<mask id="mask1_3125_34901" style="mask-type:alpha" maskUnits="userSpaceOnUse" x="486" y="58" width="22" height="22">
<rect x="486.365" y="58.3418" width="21.2778" height="21.2778" fill="#C4C4C4"/>
</mask>
<g mask="url(#mask1_3125_34901)">
<path d="M497.275 78.5559C497.849 78.5559 498.342 78.3307 498.755 77.8804C499.168 77.4302 499.374 76.8923 499.374 76.267C499.374 75.6416 499.168 75.1097 498.755 74.6715C498.342 74.2342 497.849 74.0156 497.275 74.0156C496.702 74.0156 496.208 74.2342 495.795 74.6715C495.383 75.1097 495.176 75.6416 495.176 76.267C495.176 76.8923 495.383 77.4302 495.795 77.8804C496.208 78.3307 496.702 78.5559 497.275 78.5559ZM495.658 72.7773H498.892C498.892 72.0519 498.984 71.439 499.168 70.9387C499.351 70.4384 499.787 69.8255 500.475 69.1C501.003 68.5497 501.433 67.9618 501.765 67.3365C502.098 66.7111 502.265 65.9606 502.265 65.0851C502.265 63.5841 501.817 62.4394 500.923 61.651C500.028 60.8635 498.938 60.4697 497.654 60.4697C496.254 60.4697 495.09 60.9075 494.162 61.783C493.232 62.6586 492.584 63.6967 492.217 64.8975L495.245 66.1357C495.406 65.6354 495.658 65.1351 496.002 64.6348C496.346 64.1345 496.839 63.8843 497.482 63.8843C497.94 63.8843 498.296 64.0404 498.548 64.3526C498.801 64.6658 498.927 65.01 498.927 65.3853C498.927 65.7605 498.806 66.1482 498.565 66.5485C498.324 66.9487 498.078 67.2614 497.826 67.4865C496.908 68.4121 496.318 69.1686 496.054 69.7559C495.79 70.3443 495.658 71.3514 495.658 72.7773Z" fill="#2D5172"/>
</g>
<circle cx="67.3762" cy="128.8" r="46.8001" fill="#F8D7D3"/>
<rect width="46.8001" height="46.8001" transform="translate(43.9766 105.399)" fill="#F8D7D3"/>
<mask id="mask2_3125_34901" style="mask-type:alpha" maskUnits="userSpaceOnUse" x="55" y="109" width="27" height="27">
<rect x="55.6758" y="109.302" width="26" height="26" fill="#C4C4C4"/>
</mask>
<g mask="url(#mask2_3125_34901)">
<path d="M68.6762 133.515C67.8456 133.515 67.1371 133.222 66.5507 132.635C65.9635 132.048 65.6699 131.339 65.6699 130.509C65.6699 129.678 65.9635 128.97 66.5507 128.383C67.1371 127.796 67.8456 127.502 68.6762 127.502C69.5067 127.502 70.2156 127.796 70.8028 128.383C71.3892 128.97 71.6824 129.678 71.6824 130.509C71.6824 131.339 71.3892 132.048 70.8028 132.635C70.2156 133.222 69.5067 133.515 68.6762 133.515ZM66.1033 125.336V111.307H71.2491V125.336H66.1033Z" fill="#B73321"/>
</g>
<path fill-rule="evenodd" clip-rule="evenodd" d="M79.8902 110.048C77.5625 107.573 73.6077 105.586 66.717 106.146L66.7169 106.146C59.6697 106.718 56.3946 110.435 54.7726 113.992C53.9394 115.819 53.5377 117.63 53.3472 118.997C53.2525 119.677 53.2116 120.235 53.1942 120.616C53.1855 120.806 53.1827 120.951 53.182 121.044C53.1816 121.09 53.1817 121.123 53.1819 121.142C53.182 121.151 53.1821 121.157 53.1821 121.16L53.1821 121.16C53.1822 121.161 53.1822 121.161 53.1822 121.161L53.1975 121.764L52.8645 122.273L52.8644 122.273L52.8477 122.299C52.8361 122.317 52.8188 122.343 52.7961 122.378C52.7506 122.448 52.6836 122.551 52.5983 122.683C52.4276 122.948 52.1836 123.327 51.8919 123.786C51.3078 124.706 50.536 125.939 49.7793 127.201C49.018 128.471 48.2915 129.739 47.7867 130.738C47.7234 130.863 47.6652 130.981 47.6119 131.092C47.9724 131.193 48.3934 131.289 48.8436 131.376C49.5139 131.506 50.1803 131.603 50.6844 131.669C50.9349 131.701 51.1417 131.725 51.2844 131.741C51.3556 131.749 51.4107 131.755 51.447 131.759C51.4651 131.76 51.4785 131.762 51.4869 131.763L51.4966 131.764L51.4969 131.764L51.4971 131.764L53.6817 131.974L53.2149 134.119L53.2144 134.121L53.2114 134.135C53.2086 134.149 53.2042 134.169 53.1984 134.197C53.1868 134.253 53.1696 134.337 53.1481 134.445C53.1051 134.661 53.0455 134.973 52.9803 135.349C52.8491 136.107 52.6997 137.099 52.616 138.08C52.5382 138.991 52.5282 139.777 52.5959 140.328C54.4756 140.391 56.6048 140.26 58.3804 140.094C59.3818 140 60.2491 139.897 60.8649 139.818C61.1725 139.778 61.4166 139.745 61.5823 139.721C61.6651 139.71 61.7283 139.7 61.77 139.694C61.7909 139.691 61.8064 139.689 61.8163 139.687L61.8268 139.686L61.8288 139.685L61.8289 139.685L61.829 139.685L61.8291 139.685L63.9375 139.364L64.7243 152.081L60.8318 152.322L60.3054 143.814C59.8386 143.868 59.312 143.924 58.7441 143.977C56.6566 144.172 53.925 144.34 51.5594 144.181L51.5575 144.181C50.547 144.113 49.8323 143.534 49.4141 142.902C49.0389 142.335 48.8685 141.692 48.7787 141.171C48.5962 140.11 48.6364 138.846 48.7302 137.748C48.8021 136.906 48.9138 136.075 49.0246 135.368C48.7289 135.32 48.4174 135.266 48.1018 135.205C47.3414 135.057 46.4849 134.857 45.7547 134.589C45.3927 134.456 44.9892 134.281 44.6239 134.044C44.3002 133.834 43.7553 133.417 43.4786 132.705C43.2479 132.111 43.3378 131.558 43.3744 131.354C43.4253 131.072 43.5119 130.797 43.5972 130.562C43.7702 130.084 44.0247 129.535 44.306 128.979C44.8749 127.853 45.6588 126.49 46.4342 125.196C47.2142 123.895 48.0053 122.631 48.6 121.695C48.8804 121.254 49.1179 120.884 49.291 120.616C49.293 120.56 49.2954 120.501 49.2982 120.438C49.3203 119.954 49.371 119.274 49.4845 118.459C49.7104 116.838 50.1915 114.638 51.2241 112.374C53.3337 107.748 57.7218 102.963 66.4013 102.259C74.2549 101.621 79.4513 103.888 82.7315 107.376C85.9357 110.784 87.0627 115.094 87.3722 118.156C87.6518 120.918 87.5995 124.363 86.8059 127.712C86.0883 130.74 84.7336 133.811 82.3496 136.178L83.4773 146.974L79.5984 147.38L78.2622 134.587L79.0455 133.921C81.0814 132.191 82.3373 129.655 83.011 126.813C83.6833 123.976 83.7381 120.98 83.492 118.549L83.492 118.549C83.2312 115.968 82.2938 112.604 79.8902 110.048Z" fill="#B73321"/>
<circle cx="241.576" cy="60" r="60" fill="#DAE6DA"/>
<rect width="60" height="60" transform="translate(211.576 30)" fill="#DAE6DA"/>
<mask id="mask3_3125_34901" style="mask-type:alpha" maskUnits="userSpaceOnUse" x="228" y="34" width="34" height="35">
<rect x="228.243" y="34.9961" width="33.3333" height="33.3333" fill="#C4C4C4"/>
</mask>
<g mask="url(#mask3_3125_34901)">
<path d="M241.507 61.1077L232.479 52.08L235.604 48.955L241.507 54.8577L254.216 42.1494L257.341 45.2744L241.507 61.1077Z" fill="#365C37"/>
</g>
<path fill-rule="evenodd" clip-rule="evenodd" d="M259.286 39.2861C256.302 36.1124 251.232 33.5657 242.397 34.2834L242.397 34.2835C233.362 35.0169 229.163 39.7824 227.084 44.3422C226.016 46.6844 225.501 49.0069 225.257 50.7595C225.135 51.6307 225.083 52.3468 225.06 52.8351C225.049 53.0788 225.046 53.2646 225.045 53.3833C225.044 53.4425 225.045 53.4849 225.045 53.5093C225.045 53.5212 225.045 53.5288 225.045 53.5319L225.045 53.5321C225.045 53.5335 225.045 53.5339 225.045 53.533L225.065 54.3065L224.638 54.9591L224.638 54.9593L224.616 54.9921C224.601 55.0148 224.579 55.0489 224.55 55.0937C224.492 55.1833 224.406 55.3156 224.296 55.485C224.078 55.8238 223.765 56.3105 223.391 56.8991C222.642 58.0779 221.652 59.6586 220.682 61.2771C219.706 62.9054 218.775 64.5308 218.128 65.8112C218.047 65.9718 217.972 66.1231 217.904 66.2648C218.366 66.3947 218.906 66.5177 219.483 66.6295C220.342 66.796 221.196 66.9211 221.843 67.0049C222.164 67.0466 222.429 67.0774 222.612 67.0977C222.703 67.1078 222.774 67.1153 222.82 67.1201C222.844 67.1225 222.861 67.1242 222.872 67.1253L222.884 67.1265L222.884 67.1265L222.885 67.1265L225.685 67.3965L225.087 70.1465L225.086 70.1494L225.083 70.1673C225.079 70.1842 225.073 70.2108 225.066 70.2465C225.051 70.3178 225.029 70.4254 225.001 70.564C224.946 70.8414 224.87 71.2416 224.786 71.7237C224.618 72.6948 224.427 73.967 224.319 75.2242C224.219 76.3929 224.207 77.3999 224.293 78.107C226.703 78.1874 229.433 78.0193 231.709 77.8061C232.993 77.6859 234.105 77.5541 234.895 77.4525C235.289 77.4017 235.602 77.3587 235.814 77.3286C235.921 77.3135 236.002 77.3018 236.055 77.2939C236.082 77.2899 236.102 77.287 236.114 77.2851L236.128 77.283L236.13 77.2826L236.131 77.2826L236.131 77.2826L236.131 77.2826L238.834 76.8702L239.843 93.174L234.852 93.4828L234.177 82.5761C233.579 82.6445 232.904 82.7161 232.176 82.7843C229.499 83.035 225.997 83.2496 222.965 83.0467L222.962 83.0465C221.667 82.9585 220.75 82.217 220.214 81.4063C219.733 80.6791 219.515 79.8546 219.4 79.1866C219.166 77.8274 219.217 76.2068 219.337 74.799C219.43 73.7192 219.573 72.6543 219.715 71.7476C219.336 71.6863 218.936 71.6166 218.532 71.5382C217.557 71.3494 216.459 71.0929 215.523 70.749C215.059 70.5786 214.541 70.3536 214.073 70.0501C213.658 69.7811 212.959 69.2467 212.605 68.3329C212.309 67.5721 212.424 66.8626 212.471 66.6017C212.536 66.2394 212.647 65.887 212.757 65.5853C212.978 64.9731 213.305 64.2696 213.665 63.556C214.395 62.1127 215.4 60.365 216.394 58.7065C217.394 57.0381 218.408 55.4181 219.17 54.218C219.53 53.6521 219.834 53.178 220.056 52.8342C220.059 52.7626 220.062 52.6867 220.066 52.6068C220.094 51.986 220.159 51.1142 220.304 50.0696C220.594 47.9907 221.211 45.1704 222.535 42.2675C225.239 36.3371 230.865 30.2032 241.993 29.2999C252.061 28.4818 258.723 31.3886 262.929 35.8609C267.037 40.2296 268.482 45.7556 268.878 49.6811C269.237 53.2224 269.17 57.639 268.152 61.9323C267.232 65.8143 265.496 69.751 262.439 72.7853L263.885 86.6276L258.912 87.147L257.199 70.7461L258.203 69.8925C260.813 67.6739 262.423 64.4235 263.287 60.7793C264.149 57.1424 264.219 53.3017 263.904 50.1847L263.904 50.1842C263.569 46.8755 262.368 42.5632 259.286 39.2861Z" fill="#365C37"/>
</svg>
